%TF.GenerationSoftware,KiCad,Pcbnew,9.0.7*%
%TF.CreationDate,2026-02-24T23:56:39-05:00*%
%TF.ProjectId,PowerSlice,506f7765-7253-46c6-9963-652e6b696361,rev?*%
%TF.SameCoordinates,Original*%
%TF.FileFunction,Soldermask,Bot*%
%TF.FilePolarity,Negative*%
%FSLAX46Y46*%
G04 Gerber Fmt 4.6, Leading zero omitted, Abs format (unit mm)*
G04 Created by KiCad (PCBNEW 9.0.7) date 2026-02-24 23:56:39*
%MOMM*%
%LPD*%
G01*
G04 APERTURE LIST*
G04 Aperture macros list*
%AMRoundRect*
0 Rectangle with rounded corners*
0 $1 Rounding radius*
0 $2 $3 $4 $5 $6 $7 $8 $9 X,Y pos of 4 corners*
0 Add a 4 corners polygon primitive as box body*
4,1,4,$2,$3,$4,$5,$6,$7,$8,$9,$2,$3,0*
0 Add four circle primitives for the rounded corners*
1,1,$1+$1,$2,$3*
1,1,$1+$1,$4,$5*
1,1,$1+$1,$6,$7*
1,1,$1+$1,$8,$9*
0 Add four rect primitives between the rounded corners*
20,1,$1+$1,$2,$3,$4,$5,0*
20,1,$1+$1,$4,$5,$6,$7,0*
20,1,$1+$1,$6,$7,$8,$9,0*
20,1,$1+$1,$8,$9,$2,$3,0*%
G04 Aperture macros list end*
%ADD10C,2.800000*%
%ADD11RoundRect,0.102000X-0.765000X0.765000X-0.765000X-0.765000X0.765000X-0.765000X0.765000X0.765000X0*%
%ADD12C,1.734000*%
%ADD13C,2.000000*%
%ADD14C,2.006600*%
%ADD15R,1.700000X1.700000*%
%ADD16C,1.700000*%
%ADD17RoundRect,0.250000X-0.550000X-0.550000X0.550000X-0.550000X0.550000X0.550000X-0.550000X0.550000X0*%
%ADD18C,1.600000*%
%ADD19RoundRect,0.250000X0.550000X0.550000X-0.550000X0.550000X-0.550000X-0.550000X0.550000X-0.550000X0*%
%ADD20C,2.154000*%
%ADD21C,3.200000*%
G04 APERTURE END LIST*
D10*
%TO.C,TP9*%
X165925000Y-96075000D03*
%TD*%
%TO.C,TP10*%
X165925000Y-102741667D03*
%TD*%
%TO.C,TP11*%
X165925000Y-109408333D03*
%TD*%
%TO.C,TP12*%
X165925000Y-116075000D03*
%TD*%
%TO.C,TP8*%
X125925000Y-94525000D03*
%TD*%
%TO.C,TP14*%
X147175000Y-67025000D03*
%TD*%
%TO.C,TP13*%
X153675000Y-67025000D03*
%TD*%
%TO.C,TP7*%
X130558333Y-94525000D03*
%TD*%
%TO.C,TP6*%
X135191667Y-94525000D03*
%TD*%
%TO.C,TP5*%
X139825000Y-94525000D03*
%TD*%
%TO.C,TP4*%
X140075000Y-67025000D03*
%TD*%
%TO.C,TP3*%
X134391667Y-67025000D03*
%TD*%
%TO.C,TP2*%
X128708333Y-67025000D03*
%TD*%
%TO.C,TP1*%
X123025000Y-67025000D03*
%TD*%
D11*
%TO.C,U6*%
X166860000Y-73260000D03*
D12*
X164320000Y-73260000D03*
X161780000Y-73260000D03*
X159240000Y-73260000D03*
X156700000Y-73260000D03*
X154160000Y-73260000D03*
X151620000Y-73260000D03*
X149080000Y-73260000D03*
X146540000Y-73260000D03*
X144000000Y-73260000D03*
X141460000Y-73260000D03*
X138920000Y-73260000D03*
X136380000Y-73260000D03*
X133840000Y-73260000D03*
X131300000Y-73260000D03*
D11*
X166860000Y-88500000D03*
D12*
X164320000Y-88500000D03*
X161780000Y-88500000D03*
X159240000Y-88500000D03*
X156700000Y-88500000D03*
X154160000Y-88500000D03*
X151620000Y-88500000D03*
X149080000Y-88500000D03*
X146540000Y-88500000D03*
X144000000Y-88500000D03*
X141460000Y-88500000D03*
X138920000Y-88500000D03*
X136380000Y-88500000D03*
X133840000Y-88500000D03*
X131300000Y-88500000D03*
%TD*%
D13*
%TO.C,U2*%
X100400000Y-68000000D03*
X103956000Y-68000000D03*
X107512000Y-68000000D03*
X108782000Y-80192000D03*
X99130000Y-80192000D03*
%TD*%
D14*
%TO.C,F2*%
X116900000Y-119560000D03*
X116900000Y-84000000D03*
%TD*%
D15*
%TO.C,J1*%
X137680000Y-128500000D03*
D16*
X135140000Y-128500000D03*
X132600000Y-128500000D03*
X130060000Y-128500000D03*
X127520000Y-128500000D03*
X124980000Y-128500000D03*
X122440000Y-128500000D03*
X119900000Y-128500000D03*
X117360000Y-128500000D03*
X114820000Y-128500000D03*
%TD*%
D13*
%TO.C,U1*%
X86344000Y-68000000D03*
X89900000Y-68000000D03*
X93456000Y-68000000D03*
X94726000Y-80192000D03*
X85074000Y-80192000D03*
%TD*%
D17*
%TO.C,C2*%
X103900000Y-87500000D03*
D18*
X106400000Y-87500000D03*
%TD*%
D14*
%TO.C,F1*%
X89900000Y-129676750D03*
X89900000Y-94116750D03*
%TD*%
D17*
%TO.C,C1*%
X85400000Y-87500000D03*
D18*
X87900000Y-87500000D03*
%TD*%
D19*
%TO.C,C3*%
X116582380Y-79000000D03*
D18*
X114082380Y-79000000D03*
%TD*%
D20*
%TO.C,J4*%
X78900000Y-84000000D03*
X78900000Y-89000000D03*
%TD*%
D21*
%TO.C,REF\u002A\u002A*%
X169400000Y-67500000D03*
%TD*%
%TO.C,REF\u002A\u002A*%
X169400000Y-127500000D03*
%TD*%
D14*
%TO.C,F3*%
X103400000Y-129676750D03*
X103400000Y-94116750D03*
%TD*%
D21*
%TO.C,REF\u002A\u002A*%
X79400000Y-127500000D03*
%TD*%
D20*
%TO.C,J3*%
X78900000Y-106000000D03*
X78900000Y-111000000D03*
%TD*%
D17*
%TO.C,C4*%
X94650000Y-87500000D03*
D18*
X97150000Y-87500000D03*
%TD*%
D21*
%TO.C,REF\u002A\u002A*%
X79400000Y-67500000D03*
%TD*%
M02*
