M48
; DRILL file {KiCad 9.0.7} date 2026-02-24T23:56:43-0500
; FORMAT={-:-/ absolute / metric / decimal}
; #@! TF.CreationDate,2026-02-24T23:56:43-05:00
; #@! TF.GenerationSoftware,Kicad,Pcbnew,9.0.7
; #@! TF.FileFunction,Plated,1,2,PTH
FMAT,2
METRIC
; #@! TA.AperFunction,Plated,PTH,ViaDrill
T1C0.300
; #@! TA.AperFunction,Plated,PTH,ComponentDrill
T2C0.800
; #@! TA.AperFunction,Plated,PTH,ComponentDrill
T3C1.000
; #@! TA.AperFunction,Plated,PTH,ComponentDrill
T4C1.020
; #@! TA.AperFunction,Plated,PTH,ComponentDrill
T5C1.300
; #@! TA.AperFunction,Plated,PTH,ComponentDrill
T6C1.400
; #@! TA.AperFunction,Plated,PTH,ComponentDrill
T7C1.499
; #@! TA.AperFunction,Plated,PTH,ComponentDrill
T8C1.600
%
G90
G05
T1
X77.4Y-73.0
X79.4Y-78.0
X111.9Y-76.5
X112.4Y-69.0
X120.5Y-83.0
X120.5Y-85.0
X122.3Y-96.9
X122.3Y-105.0
X123.5Y-107.5
X123.5Y-113.5
X125.5Y-115.75
X125.825Y-119.425
X126.3Y-125.05
X126.5Y-123.0
X127.3Y-108.2
X127.3Y-114.6
X128.5Y-125.0
X130.5Y-105.0
X134.7Y-105.6
X135.5Y-108.5
X136.0Y-97.3
X137.667Y-97.0
X142.5Y-97.0
X143.1Y-110.63
X143.1Y-118.8
X144.0Y-97.0
X144.5Y-99.5
X144.5Y-121.08
X146.1Y-108.6
X146.7Y-104.4
X153.5Y-98.6
X153.5Y-106.2
X154.7Y-97.2
X154.7Y-102.4
X159.0Y-97.0
X159.5Y-86.5
X160.7Y-104.4
X160.7Y-108.6
X160.9Y-100.2
X165.0Y-78.5
X169.0Y-86.5
X173.0Y-78.5
X173.0Y-88.0
T2
X85.4Y-87.5
X87.9Y-87.5
X94.65Y-87.5
X97.15Y-87.5
X103.9Y-87.5
X106.4Y-87.5
X114.082Y-79.0
X116.582Y-79.0
T3
X114.82Y-128.5
X117.36Y-128.5
X119.9Y-128.5
X122.44Y-128.5
X124.98Y-128.5
X127.52Y-128.5
X130.06Y-128.5
X132.6Y-128.5
X135.14Y-128.5
X137.68Y-128.5
T4
X131.3Y-73.26
X131.3Y-88.5
X133.84Y-73.26
X133.84Y-88.5
X136.38Y-73.26
X136.38Y-88.5
X138.92Y-73.26
X138.92Y-88.5
X141.46Y-73.26
X141.46Y-88.5
X144.0Y-73.26
X144.0Y-88.5
X146.54Y-73.26
X146.54Y-88.5
X149.08Y-73.26
X149.08Y-88.5
X151.62Y-73.26
X151.62Y-88.5
X154.16Y-73.26
X154.16Y-88.5
X156.7Y-73.26
X156.7Y-88.5
X159.24Y-73.26
X159.24Y-88.5
X161.78Y-73.26
X161.78Y-88.5
X164.32Y-73.26
X164.32Y-88.5
X166.86Y-73.26
X166.86Y-88.5
T5
X78.9Y-84.0
X78.9Y-89.0
X78.9Y-106.0
X78.9Y-111.0
T6
X85.074Y-80.192
X86.344Y-68.0
X89.9Y-68.0
X93.456Y-68.0
X94.726Y-80.192
X99.13Y-80.192
X100.4Y-68.0
X103.956Y-68.0
X107.512Y-68.0
X108.782Y-80.192
T7
X89.9Y-94.117
X89.9Y-129.677
X103.4Y-94.117
X103.4Y-129.677
X116.9Y-84.0
X116.9Y-119.56
T8
X123.025Y-67.025
X125.925Y-94.525
X128.708Y-67.025
X130.558Y-94.525
X134.392Y-67.025
X135.192Y-94.525
X139.825Y-94.525
X140.075Y-67.025
X147.175Y-67.025
X153.675Y-67.025
X165.925Y-96.075
X165.925Y-102.742
X165.925Y-109.408
X165.925Y-116.075
M30
