%TF.GenerationSoftware,KiCad,Pcbnew,9.0.7*%
%TF.CreationDate,2026-02-24T23:56:38-05:00*%
%TF.ProjectId,PowerSlice,506f7765-7253-46c6-9963-652e6b696361,rev?*%
%TF.SameCoordinates,Original*%
%TF.FileFunction,Paste,Top*%
%TF.FilePolarity,Positive*%
%FSLAX46Y46*%
G04 Gerber Fmt 4.6, Leading zero omitted, Abs format (unit mm)*
G04 Created by KiCad (PCBNEW 9.0.7) date 2026-02-24 23:56:38*
%MOMM*%
%LPD*%
G01*
G04 APERTURE LIST*
G04 Aperture macros list*
%AMRoundRect*
0 Rectangle with rounded corners*
0 $1 Rounding radius*
0 $2 $3 $4 $5 $6 $7 $8 $9 X,Y pos of 4 corners*
0 Add a 4 corners polygon primitive as box body*
4,1,4,$2,$3,$4,$5,$6,$7,$8,$9,$2,$3,0*
0 Add four circle primitives for the rounded corners*
1,1,$1+$1,$2,$3*
1,1,$1+$1,$4,$5*
1,1,$1+$1,$6,$7*
1,1,$1+$1,$8,$9*
0 Add four rect primitives between the rounded corners*
20,1,$1+$1,$2,$3,$4,$5,0*
20,1,$1+$1,$4,$5,$6,$7,0*
20,1,$1+$1,$6,$7,$8,$9,0*
20,1,$1+$1,$8,$9,$2,$3,0*%
G04 Aperture macros list end*
%ADD10RoundRect,0.250000X0.400000X0.625000X-0.400000X0.625000X-0.400000X-0.625000X0.400000X-0.625000X0*%
%ADD11RoundRect,0.250000X-0.400000X-0.625000X0.400000X-0.625000X0.400000X0.625000X-0.400000X0.625000X0*%
%ADD12RoundRect,0.250000X0.625000X-0.400000X0.625000X0.400000X-0.625000X0.400000X-0.625000X-0.400000X0*%
%ADD13RoundRect,0.250000X0.412500X0.650000X-0.412500X0.650000X-0.412500X-0.650000X0.412500X-0.650000X0*%
%ADD14R,0.399999X0.850001*%
%ADD15R,0.850001X0.399999*%
%ADD16RoundRect,0.250000X-0.412500X-0.650000X0.412500X-0.650000X0.412500X0.650000X-0.412500X0.650000X0*%
%ADD17RoundRect,0.250000X0.650000X-0.412500X0.650000X0.412500X-0.650000X0.412500X-0.650000X-0.412500X0*%
G04 APERTURE END LIST*
D10*
%TO.C,R2*%
X129000000Y-111000000D03*
X125900000Y-111000000D03*
%TD*%
%TO.C,R1*%
X129000000Y-102000000D03*
X125900000Y-102000000D03*
%TD*%
D11*
%TO.C,R10*%
X155925000Y-104400000D03*
X159025000Y-104400000D03*
%TD*%
D12*
%TO.C,R4*%
X79400000Y-76100000D03*
X79400000Y-73000000D03*
%TD*%
D13*
%TO.C,C6*%
X127662500Y-117800000D03*
X124537500Y-117800000D03*
%TD*%
D14*
%TO.C,U3*%
X126600000Y-107000000D03*
X127250001Y-107000000D03*
X127900000Y-107000000D03*
X127900000Y-104749999D03*
X127250001Y-104749999D03*
X126600000Y-104749999D03*
%TD*%
%TO.C,U4*%
X126600000Y-115750001D03*
X127250001Y-115750001D03*
X127900000Y-115750001D03*
X127900000Y-113500000D03*
X127250001Y-113500000D03*
X126600000Y-113500000D03*
%TD*%
D15*
%TO.C,U5*%
X127400000Y-125050000D03*
X127400000Y-124399999D03*
X127400000Y-123750000D03*
X125149999Y-123750000D03*
X125149999Y-124399999D03*
X125149999Y-125050000D03*
%TD*%
D12*
%TO.C,R3*%
X122400000Y-125750000D03*
X122400000Y-122650000D03*
%TD*%
D11*
%TO.C,R6*%
X148000000Y-100200000D03*
X151100000Y-100200000D03*
%TD*%
%TO.C,R11*%
X155950000Y-108600000D03*
X159050000Y-108600000D03*
%TD*%
%TO.C,R7*%
X147975000Y-104400000D03*
X151075000Y-104400000D03*
%TD*%
D16*
%TO.C,C5*%
X129900000Y-106600000D03*
X133025000Y-106600000D03*
%TD*%
D12*
%TO.C,R5*%
X112400000Y-74500000D03*
X112400000Y-71400000D03*
%TD*%
D11*
%TO.C,R8*%
X148000000Y-108600000D03*
X151100000Y-108600000D03*
%TD*%
D17*
%TO.C,C8*%
X159200000Y-94962500D03*
X159200000Y-91837500D03*
%TD*%
D13*
%TO.C,C7*%
X128962500Y-121600000D03*
X125837500Y-121600000D03*
%TD*%
D11*
%TO.C,R9*%
X155950000Y-100200000D03*
X159050000Y-100200000D03*
%TD*%
M02*
