%TF.GenerationSoftware,KiCad,Pcbnew,9.0.7*%
%TF.CreationDate,2026-02-24T23:56:39-05:00*%
%TF.ProjectId,PowerSlice,506f7765-7253-46c6-9963-652e6b696361,rev?*%
%TF.SameCoordinates,Original*%
%TF.FileFunction,Legend,Top*%
%TF.FilePolarity,Positive*%
%FSLAX46Y46*%
G04 Gerber Fmt 4.6, Leading zero omitted, Abs format (unit mm)*
G04 Created by KiCad (PCBNEW 9.0.7) date 2026-02-24 23:56:39*
%MOMM*%
%LPD*%
G01*
G04 APERTURE LIST*
%ADD10C,0.250000*%
%ADD11C,0.150000*%
%ADD12C,0.120000*%
%ADD13C,0.127000*%
%ADD14C,0.400000*%
%ADD15C,0.152400*%
%ADD16C,0.508000*%
%ADD17C,0.200000*%
G04 APERTURE END LIST*
D10*
X75152568Y-102233666D02*
X75914473Y-102233666D01*
X75533520Y-102614619D02*
X75533520Y-101852714D01*
X76914472Y-102614619D02*
X76343044Y-102614619D01*
X76628758Y-102614619D02*
X76628758Y-101614619D01*
X76628758Y-101614619D02*
X76533520Y-101757476D01*
X76533520Y-101757476D02*
X76438282Y-101852714D01*
X76438282Y-101852714D02*
X76343044Y-101900333D01*
X77295425Y-101709857D02*
X77343044Y-101662238D01*
X77343044Y-101662238D02*
X77438282Y-101614619D01*
X77438282Y-101614619D02*
X77676377Y-101614619D01*
X77676377Y-101614619D02*
X77771615Y-101662238D01*
X77771615Y-101662238D02*
X77819234Y-101709857D01*
X77819234Y-101709857D02*
X77866853Y-101805095D01*
X77866853Y-101805095D02*
X77866853Y-101900333D01*
X77866853Y-101900333D02*
X77819234Y-102043190D01*
X77819234Y-102043190D02*
X77247806Y-102614619D01*
X77247806Y-102614619D02*
X77866853Y-102614619D01*
X78152568Y-101614619D02*
X78485901Y-102614619D01*
X78485901Y-102614619D02*
X78819234Y-101614619D01*
X75152568Y-114983666D02*
X75914473Y-114983666D01*
X76914472Y-115364619D02*
X76343044Y-115364619D01*
X76628758Y-115364619D02*
X76628758Y-114364619D01*
X76628758Y-114364619D02*
X76533520Y-114507476D01*
X76533520Y-114507476D02*
X76438282Y-114602714D01*
X76438282Y-114602714D02*
X76343044Y-114650333D01*
X77295425Y-114459857D02*
X77343044Y-114412238D01*
X77343044Y-114412238D02*
X77438282Y-114364619D01*
X77438282Y-114364619D02*
X77676377Y-114364619D01*
X77676377Y-114364619D02*
X77771615Y-114412238D01*
X77771615Y-114412238D02*
X77819234Y-114459857D01*
X77819234Y-114459857D02*
X77866853Y-114555095D01*
X77866853Y-114555095D02*
X77866853Y-114650333D01*
X77866853Y-114650333D02*
X77819234Y-114793190D01*
X77819234Y-114793190D02*
X77247806Y-115364619D01*
X77247806Y-115364619D02*
X77866853Y-115364619D01*
X78152568Y-114364619D02*
X78485901Y-115364619D01*
X78485901Y-115364619D02*
X78819234Y-114364619D01*
X75152568Y-80090809D02*
X75485901Y-80090809D01*
X75628758Y-80614619D02*
X75152568Y-80614619D01*
X75152568Y-80614619D02*
X75152568Y-79614619D01*
X75152568Y-79614619D02*
X75628758Y-79614619D01*
X76009711Y-80567000D02*
X76152568Y-80614619D01*
X76152568Y-80614619D02*
X76390663Y-80614619D01*
X76390663Y-80614619D02*
X76485901Y-80567000D01*
X76485901Y-80567000D02*
X76533520Y-80519380D01*
X76533520Y-80519380D02*
X76581139Y-80424142D01*
X76581139Y-80424142D02*
X76581139Y-80328904D01*
X76581139Y-80328904D02*
X76533520Y-80233666D01*
X76533520Y-80233666D02*
X76485901Y-80186047D01*
X76485901Y-80186047D02*
X76390663Y-80138428D01*
X76390663Y-80138428D02*
X76200187Y-80090809D01*
X76200187Y-80090809D02*
X76104949Y-80043190D01*
X76104949Y-80043190D02*
X76057330Y-79995571D01*
X76057330Y-79995571D02*
X76009711Y-79900333D01*
X76009711Y-79900333D02*
X76009711Y-79805095D01*
X76009711Y-79805095D02*
X76057330Y-79709857D01*
X76057330Y-79709857D02*
X76104949Y-79662238D01*
X76104949Y-79662238D02*
X76200187Y-79614619D01*
X76200187Y-79614619D02*
X76438282Y-79614619D01*
X76438282Y-79614619D02*
X76581139Y-79662238D01*
X76866854Y-79614619D02*
X77438282Y-79614619D01*
X77152568Y-80614619D02*
X77152568Y-79614619D01*
X77962092Y-79614619D02*
X78152568Y-79614619D01*
X78152568Y-79614619D02*
X78247806Y-79662238D01*
X78247806Y-79662238D02*
X78343044Y-79757476D01*
X78343044Y-79757476D02*
X78390663Y-79947952D01*
X78390663Y-79947952D02*
X78390663Y-80281285D01*
X78390663Y-80281285D02*
X78343044Y-80471761D01*
X78343044Y-80471761D02*
X78247806Y-80567000D01*
X78247806Y-80567000D02*
X78152568Y-80614619D01*
X78152568Y-80614619D02*
X77962092Y-80614619D01*
X77962092Y-80614619D02*
X77866854Y-80567000D01*
X77866854Y-80567000D02*
X77771616Y-80471761D01*
X77771616Y-80471761D02*
X77723997Y-80281285D01*
X77723997Y-80281285D02*
X77723997Y-79947952D01*
X77723997Y-79947952D02*
X77771616Y-79757476D01*
X77771616Y-79757476D02*
X77866854Y-79662238D01*
X77866854Y-79662238D02*
X77962092Y-79614619D01*
X78819235Y-80614619D02*
X78819235Y-79614619D01*
X78819235Y-79614619D02*
X79200187Y-79614619D01*
X79200187Y-79614619D02*
X79295425Y-79662238D01*
X79295425Y-79662238D02*
X79343044Y-79709857D01*
X79343044Y-79709857D02*
X79390663Y-79805095D01*
X79390663Y-79805095D02*
X79390663Y-79947952D01*
X79390663Y-79947952D02*
X79343044Y-80043190D01*
X79343044Y-80043190D02*
X79295425Y-80090809D01*
X79295425Y-80090809D02*
X79200187Y-80138428D01*
X79200187Y-80138428D02*
X78819235Y-80138428D01*
D11*
X164663095Y-92779819D02*
X165234523Y-92779819D01*
X164948809Y-93779819D02*
X164948809Y-92779819D01*
X165567857Y-93779819D02*
X165567857Y-92779819D01*
X165567857Y-92779819D02*
X165948809Y-92779819D01*
X165948809Y-92779819D02*
X166044047Y-92827438D01*
X166044047Y-92827438D02*
X166091666Y-92875057D01*
X166091666Y-92875057D02*
X166139285Y-92970295D01*
X166139285Y-92970295D02*
X166139285Y-93113152D01*
X166139285Y-93113152D02*
X166091666Y-93208390D01*
X166091666Y-93208390D02*
X166044047Y-93256009D01*
X166044047Y-93256009D02*
X165948809Y-93303628D01*
X165948809Y-93303628D02*
X165567857Y-93303628D01*
X166615476Y-93779819D02*
X166805952Y-93779819D01*
X166805952Y-93779819D02*
X166901190Y-93732200D01*
X166901190Y-93732200D02*
X166948809Y-93684580D01*
X166948809Y-93684580D02*
X167044047Y-93541723D01*
X167044047Y-93541723D02*
X167091666Y-93351247D01*
X167091666Y-93351247D02*
X167091666Y-92970295D01*
X167091666Y-92970295D02*
X167044047Y-92875057D01*
X167044047Y-92875057D02*
X166996428Y-92827438D01*
X166996428Y-92827438D02*
X166901190Y-92779819D01*
X166901190Y-92779819D02*
X166710714Y-92779819D01*
X166710714Y-92779819D02*
X166615476Y-92827438D01*
X166615476Y-92827438D02*
X166567857Y-92875057D01*
X166567857Y-92875057D02*
X166520238Y-92970295D01*
X166520238Y-92970295D02*
X166520238Y-93208390D01*
X166520238Y-93208390D02*
X166567857Y-93303628D01*
X166567857Y-93303628D02*
X166615476Y-93351247D01*
X166615476Y-93351247D02*
X166710714Y-93398866D01*
X166710714Y-93398866D02*
X166901190Y-93398866D01*
X166901190Y-93398866D02*
X166996428Y-93351247D01*
X166996428Y-93351247D02*
X167044047Y-93303628D01*
X167044047Y-93303628D02*
X167091666Y-93208390D01*
X164186905Y-99446486D02*
X164758333Y-99446486D01*
X164472619Y-100446486D02*
X164472619Y-99446486D01*
X165091667Y-100446486D02*
X165091667Y-99446486D01*
X165091667Y-99446486D02*
X165472619Y-99446486D01*
X165472619Y-99446486D02*
X165567857Y-99494105D01*
X165567857Y-99494105D02*
X165615476Y-99541724D01*
X165615476Y-99541724D02*
X165663095Y-99636962D01*
X165663095Y-99636962D02*
X165663095Y-99779819D01*
X165663095Y-99779819D02*
X165615476Y-99875057D01*
X165615476Y-99875057D02*
X165567857Y-99922676D01*
X165567857Y-99922676D02*
X165472619Y-99970295D01*
X165472619Y-99970295D02*
X165091667Y-99970295D01*
X166615476Y-100446486D02*
X166044048Y-100446486D01*
X166329762Y-100446486D02*
X166329762Y-99446486D01*
X166329762Y-99446486D02*
X166234524Y-99589343D01*
X166234524Y-99589343D02*
X166139286Y-99684581D01*
X166139286Y-99684581D02*
X166044048Y-99732200D01*
X167234524Y-99446486D02*
X167329762Y-99446486D01*
X167329762Y-99446486D02*
X167425000Y-99494105D01*
X167425000Y-99494105D02*
X167472619Y-99541724D01*
X167472619Y-99541724D02*
X167520238Y-99636962D01*
X167520238Y-99636962D02*
X167567857Y-99827438D01*
X167567857Y-99827438D02*
X167567857Y-100065533D01*
X167567857Y-100065533D02*
X167520238Y-100256009D01*
X167520238Y-100256009D02*
X167472619Y-100351247D01*
X167472619Y-100351247D02*
X167425000Y-100398867D01*
X167425000Y-100398867D02*
X167329762Y-100446486D01*
X167329762Y-100446486D02*
X167234524Y-100446486D01*
X167234524Y-100446486D02*
X167139286Y-100398867D01*
X167139286Y-100398867D02*
X167091667Y-100351247D01*
X167091667Y-100351247D02*
X167044048Y-100256009D01*
X167044048Y-100256009D02*
X166996429Y-100065533D01*
X166996429Y-100065533D02*
X166996429Y-99827438D01*
X166996429Y-99827438D02*
X167044048Y-99636962D01*
X167044048Y-99636962D02*
X167091667Y-99541724D01*
X167091667Y-99541724D02*
X167139286Y-99494105D01*
X167139286Y-99494105D02*
X167234524Y-99446486D01*
X164186905Y-106113152D02*
X164758333Y-106113152D01*
X164472619Y-107113152D02*
X164472619Y-106113152D01*
X165091667Y-107113152D02*
X165091667Y-106113152D01*
X165091667Y-106113152D02*
X165472619Y-106113152D01*
X165472619Y-106113152D02*
X165567857Y-106160771D01*
X165567857Y-106160771D02*
X165615476Y-106208390D01*
X165615476Y-106208390D02*
X165663095Y-106303628D01*
X165663095Y-106303628D02*
X165663095Y-106446485D01*
X165663095Y-106446485D02*
X165615476Y-106541723D01*
X165615476Y-106541723D02*
X165567857Y-106589342D01*
X165567857Y-106589342D02*
X165472619Y-106636961D01*
X165472619Y-106636961D02*
X165091667Y-106636961D01*
X166615476Y-107113152D02*
X166044048Y-107113152D01*
X166329762Y-107113152D02*
X166329762Y-106113152D01*
X166329762Y-106113152D02*
X166234524Y-106256009D01*
X166234524Y-106256009D02*
X166139286Y-106351247D01*
X166139286Y-106351247D02*
X166044048Y-106398866D01*
X167567857Y-107113152D02*
X166996429Y-107113152D01*
X167282143Y-107113152D02*
X167282143Y-106113152D01*
X167282143Y-106113152D02*
X167186905Y-106256009D01*
X167186905Y-106256009D02*
X167091667Y-106351247D01*
X167091667Y-106351247D02*
X166996429Y-106398866D01*
X164186905Y-112779819D02*
X164758333Y-112779819D01*
X164472619Y-113779819D02*
X164472619Y-112779819D01*
X165091667Y-113779819D02*
X165091667Y-112779819D01*
X165091667Y-112779819D02*
X165472619Y-112779819D01*
X165472619Y-112779819D02*
X165567857Y-112827438D01*
X165567857Y-112827438D02*
X165615476Y-112875057D01*
X165615476Y-112875057D02*
X165663095Y-112970295D01*
X165663095Y-112970295D02*
X165663095Y-113113152D01*
X165663095Y-113113152D02*
X165615476Y-113208390D01*
X165615476Y-113208390D02*
X165567857Y-113256009D01*
X165567857Y-113256009D02*
X165472619Y-113303628D01*
X165472619Y-113303628D02*
X165091667Y-113303628D01*
X166615476Y-113779819D02*
X166044048Y-113779819D01*
X166329762Y-113779819D02*
X166329762Y-112779819D01*
X166329762Y-112779819D02*
X166234524Y-112922676D01*
X166234524Y-112922676D02*
X166139286Y-113017914D01*
X166139286Y-113017914D02*
X166044048Y-113065533D01*
X166996429Y-112875057D02*
X167044048Y-112827438D01*
X167044048Y-112827438D02*
X167139286Y-112779819D01*
X167139286Y-112779819D02*
X167377381Y-112779819D01*
X167377381Y-112779819D02*
X167472619Y-112827438D01*
X167472619Y-112827438D02*
X167520238Y-112875057D01*
X167520238Y-112875057D02*
X167567857Y-112970295D01*
X167567857Y-112970295D02*
X167567857Y-113065533D01*
X167567857Y-113065533D02*
X167520238Y-113208390D01*
X167520238Y-113208390D02*
X166948810Y-113779819D01*
X166948810Y-113779819D02*
X167567857Y-113779819D01*
X124663095Y-91229819D02*
X125234523Y-91229819D01*
X124948809Y-92229819D02*
X124948809Y-91229819D01*
X125567857Y-92229819D02*
X125567857Y-91229819D01*
X125567857Y-91229819D02*
X125948809Y-91229819D01*
X125948809Y-91229819D02*
X126044047Y-91277438D01*
X126044047Y-91277438D02*
X126091666Y-91325057D01*
X126091666Y-91325057D02*
X126139285Y-91420295D01*
X126139285Y-91420295D02*
X126139285Y-91563152D01*
X126139285Y-91563152D02*
X126091666Y-91658390D01*
X126091666Y-91658390D02*
X126044047Y-91706009D01*
X126044047Y-91706009D02*
X125948809Y-91753628D01*
X125948809Y-91753628D02*
X125567857Y-91753628D01*
X126710714Y-91658390D02*
X126615476Y-91610771D01*
X126615476Y-91610771D02*
X126567857Y-91563152D01*
X126567857Y-91563152D02*
X126520238Y-91467914D01*
X126520238Y-91467914D02*
X126520238Y-91420295D01*
X126520238Y-91420295D02*
X126567857Y-91325057D01*
X126567857Y-91325057D02*
X126615476Y-91277438D01*
X126615476Y-91277438D02*
X126710714Y-91229819D01*
X126710714Y-91229819D02*
X126901190Y-91229819D01*
X126901190Y-91229819D02*
X126996428Y-91277438D01*
X126996428Y-91277438D02*
X127044047Y-91325057D01*
X127044047Y-91325057D02*
X127091666Y-91420295D01*
X127091666Y-91420295D02*
X127091666Y-91467914D01*
X127091666Y-91467914D02*
X127044047Y-91563152D01*
X127044047Y-91563152D02*
X126996428Y-91610771D01*
X126996428Y-91610771D02*
X126901190Y-91658390D01*
X126901190Y-91658390D02*
X126710714Y-91658390D01*
X126710714Y-91658390D02*
X126615476Y-91706009D01*
X126615476Y-91706009D02*
X126567857Y-91753628D01*
X126567857Y-91753628D02*
X126520238Y-91848866D01*
X126520238Y-91848866D02*
X126520238Y-92039342D01*
X126520238Y-92039342D02*
X126567857Y-92134580D01*
X126567857Y-92134580D02*
X126615476Y-92182200D01*
X126615476Y-92182200D02*
X126710714Y-92229819D01*
X126710714Y-92229819D02*
X126901190Y-92229819D01*
X126901190Y-92229819D02*
X126996428Y-92182200D01*
X126996428Y-92182200D02*
X127044047Y-92134580D01*
X127044047Y-92134580D02*
X127091666Y-92039342D01*
X127091666Y-92039342D02*
X127091666Y-91848866D01*
X127091666Y-91848866D02*
X127044047Y-91753628D01*
X127044047Y-91753628D02*
X126996428Y-91706009D01*
X126996428Y-91706009D02*
X126901190Y-91658390D01*
X145436905Y-63729819D02*
X146008333Y-63729819D01*
X145722619Y-64729819D02*
X145722619Y-63729819D01*
X146341667Y-64729819D02*
X146341667Y-63729819D01*
X146341667Y-63729819D02*
X146722619Y-63729819D01*
X146722619Y-63729819D02*
X146817857Y-63777438D01*
X146817857Y-63777438D02*
X146865476Y-63825057D01*
X146865476Y-63825057D02*
X146913095Y-63920295D01*
X146913095Y-63920295D02*
X146913095Y-64063152D01*
X146913095Y-64063152D02*
X146865476Y-64158390D01*
X146865476Y-64158390D02*
X146817857Y-64206009D01*
X146817857Y-64206009D02*
X146722619Y-64253628D01*
X146722619Y-64253628D02*
X146341667Y-64253628D01*
X147865476Y-64729819D02*
X147294048Y-64729819D01*
X147579762Y-64729819D02*
X147579762Y-63729819D01*
X147579762Y-63729819D02*
X147484524Y-63872676D01*
X147484524Y-63872676D02*
X147389286Y-63967914D01*
X147389286Y-63967914D02*
X147294048Y-64015533D01*
X148722619Y-64063152D02*
X148722619Y-64729819D01*
X148484524Y-63682200D02*
X148246429Y-64396485D01*
X148246429Y-64396485D02*
X148865476Y-64396485D01*
X151936905Y-63729819D02*
X152508333Y-63729819D01*
X152222619Y-64729819D02*
X152222619Y-63729819D01*
X152841667Y-64729819D02*
X152841667Y-63729819D01*
X152841667Y-63729819D02*
X153222619Y-63729819D01*
X153222619Y-63729819D02*
X153317857Y-63777438D01*
X153317857Y-63777438D02*
X153365476Y-63825057D01*
X153365476Y-63825057D02*
X153413095Y-63920295D01*
X153413095Y-63920295D02*
X153413095Y-64063152D01*
X153413095Y-64063152D02*
X153365476Y-64158390D01*
X153365476Y-64158390D02*
X153317857Y-64206009D01*
X153317857Y-64206009D02*
X153222619Y-64253628D01*
X153222619Y-64253628D02*
X152841667Y-64253628D01*
X154365476Y-64729819D02*
X153794048Y-64729819D01*
X154079762Y-64729819D02*
X154079762Y-63729819D01*
X154079762Y-63729819D02*
X153984524Y-63872676D01*
X153984524Y-63872676D02*
X153889286Y-63967914D01*
X153889286Y-63967914D02*
X153794048Y-64015533D01*
X154698810Y-63729819D02*
X155317857Y-63729819D01*
X155317857Y-63729819D02*
X154984524Y-64110771D01*
X154984524Y-64110771D02*
X155127381Y-64110771D01*
X155127381Y-64110771D02*
X155222619Y-64158390D01*
X155222619Y-64158390D02*
X155270238Y-64206009D01*
X155270238Y-64206009D02*
X155317857Y-64301247D01*
X155317857Y-64301247D02*
X155317857Y-64539342D01*
X155317857Y-64539342D02*
X155270238Y-64634580D01*
X155270238Y-64634580D02*
X155222619Y-64682200D01*
X155222619Y-64682200D02*
X155127381Y-64729819D01*
X155127381Y-64729819D02*
X154841667Y-64729819D01*
X154841667Y-64729819D02*
X154746429Y-64682200D01*
X154746429Y-64682200D02*
X154698810Y-64634580D01*
X129296428Y-91229819D02*
X129867856Y-91229819D01*
X129582142Y-92229819D02*
X129582142Y-91229819D01*
X130201190Y-92229819D02*
X130201190Y-91229819D01*
X130201190Y-91229819D02*
X130582142Y-91229819D01*
X130582142Y-91229819D02*
X130677380Y-91277438D01*
X130677380Y-91277438D02*
X130724999Y-91325057D01*
X130724999Y-91325057D02*
X130772618Y-91420295D01*
X130772618Y-91420295D02*
X130772618Y-91563152D01*
X130772618Y-91563152D02*
X130724999Y-91658390D01*
X130724999Y-91658390D02*
X130677380Y-91706009D01*
X130677380Y-91706009D02*
X130582142Y-91753628D01*
X130582142Y-91753628D02*
X130201190Y-91753628D01*
X131105952Y-91229819D02*
X131772618Y-91229819D01*
X131772618Y-91229819D02*
X131344047Y-92229819D01*
X133929762Y-91229819D02*
X134501190Y-91229819D01*
X134215476Y-92229819D02*
X134215476Y-91229819D01*
X134834524Y-92229819D02*
X134834524Y-91229819D01*
X134834524Y-91229819D02*
X135215476Y-91229819D01*
X135215476Y-91229819D02*
X135310714Y-91277438D01*
X135310714Y-91277438D02*
X135358333Y-91325057D01*
X135358333Y-91325057D02*
X135405952Y-91420295D01*
X135405952Y-91420295D02*
X135405952Y-91563152D01*
X135405952Y-91563152D02*
X135358333Y-91658390D01*
X135358333Y-91658390D02*
X135310714Y-91706009D01*
X135310714Y-91706009D02*
X135215476Y-91753628D01*
X135215476Y-91753628D02*
X134834524Y-91753628D01*
X136263095Y-91229819D02*
X136072619Y-91229819D01*
X136072619Y-91229819D02*
X135977381Y-91277438D01*
X135977381Y-91277438D02*
X135929762Y-91325057D01*
X135929762Y-91325057D02*
X135834524Y-91467914D01*
X135834524Y-91467914D02*
X135786905Y-91658390D01*
X135786905Y-91658390D02*
X135786905Y-92039342D01*
X135786905Y-92039342D02*
X135834524Y-92134580D01*
X135834524Y-92134580D02*
X135882143Y-92182200D01*
X135882143Y-92182200D02*
X135977381Y-92229819D01*
X135977381Y-92229819D02*
X136167857Y-92229819D01*
X136167857Y-92229819D02*
X136263095Y-92182200D01*
X136263095Y-92182200D02*
X136310714Y-92134580D01*
X136310714Y-92134580D02*
X136358333Y-92039342D01*
X136358333Y-92039342D02*
X136358333Y-91801247D01*
X136358333Y-91801247D02*
X136310714Y-91706009D01*
X136310714Y-91706009D02*
X136263095Y-91658390D01*
X136263095Y-91658390D02*
X136167857Y-91610771D01*
X136167857Y-91610771D02*
X135977381Y-91610771D01*
X135977381Y-91610771D02*
X135882143Y-91658390D01*
X135882143Y-91658390D02*
X135834524Y-91706009D01*
X135834524Y-91706009D02*
X135786905Y-91801247D01*
X138563095Y-91229819D02*
X139134523Y-91229819D01*
X138848809Y-92229819D02*
X138848809Y-91229819D01*
X139467857Y-92229819D02*
X139467857Y-91229819D01*
X139467857Y-91229819D02*
X139848809Y-91229819D01*
X139848809Y-91229819D02*
X139944047Y-91277438D01*
X139944047Y-91277438D02*
X139991666Y-91325057D01*
X139991666Y-91325057D02*
X140039285Y-91420295D01*
X140039285Y-91420295D02*
X140039285Y-91563152D01*
X140039285Y-91563152D02*
X139991666Y-91658390D01*
X139991666Y-91658390D02*
X139944047Y-91706009D01*
X139944047Y-91706009D02*
X139848809Y-91753628D01*
X139848809Y-91753628D02*
X139467857Y-91753628D01*
X140944047Y-91229819D02*
X140467857Y-91229819D01*
X140467857Y-91229819D02*
X140420238Y-91706009D01*
X140420238Y-91706009D02*
X140467857Y-91658390D01*
X140467857Y-91658390D02*
X140563095Y-91610771D01*
X140563095Y-91610771D02*
X140801190Y-91610771D01*
X140801190Y-91610771D02*
X140896428Y-91658390D01*
X140896428Y-91658390D02*
X140944047Y-91706009D01*
X140944047Y-91706009D02*
X140991666Y-91801247D01*
X140991666Y-91801247D02*
X140991666Y-92039342D01*
X140991666Y-92039342D02*
X140944047Y-92134580D01*
X140944047Y-92134580D02*
X140896428Y-92182200D01*
X140896428Y-92182200D02*
X140801190Y-92229819D01*
X140801190Y-92229819D02*
X140563095Y-92229819D01*
X140563095Y-92229819D02*
X140467857Y-92182200D01*
X140467857Y-92182200D02*
X140420238Y-92134580D01*
X138813095Y-63729819D02*
X139384523Y-63729819D01*
X139098809Y-64729819D02*
X139098809Y-63729819D01*
X139717857Y-64729819D02*
X139717857Y-63729819D01*
X139717857Y-63729819D02*
X140098809Y-63729819D01*
X140098809Y-63729819D02*
X140194047Y-63777438D01*
X140194047Y-63777438D02*
X140241666Y-63825057D01*
X140241666Y-63825057D02*
X140289285Y-63920295D01*
X140289285Y-63920295D02*
X140289285Y-64063152D01*
X140289285Y-64063152D02*
X140241666Y-64158390D01*
X140241666Y-64158390D02*
X140194047Y-64206009D01*
X140194047Y-64206009D02*
X140098809Y-64253628D01*
X140098809Y-64253628D02*
X139717857Y-64253628D01*
X141146428Y-64063152D02*
X141146428Y-64729819D01*
X140908333Y-63682200D02*
X140670238Y-64396485D01*
X140670238Y-64396485D02*
X141289285Y-64396485D01*
X133129762Y-63729819D02*
X133701190Y-63729819D01*
X133415476Y-64729819D02*
X133415476Y-63729819D01*
X134034524Y-64729819D02*
X134034524Y-63729819D01*
X134034524Y-63729819D02*
X134415476Y-63729819D01*
X134415476Y-63729819D02*
X134510714Y-63777438D01*
X134510714Y-63777438D02*
X134558333Y-63825057D01*
X134558333Y-63825057D02*
X134605952Y-63920295D01*
X134605952Y-63920295D02*
X134605952Y-64063152D01*
X134605952Y-64063152D02*
X134558333Y-64158390D01*
X134558333Y-64158390D02*
X134510714Y-64206009D01*
X134510714Y-64206009D02*
X134415476Y-64253628D01*
X134415476Y-64253628D02*
X134034524Y-64253628D01*
X134939286Y-63729819D02*
X135558333Y-63729819D01*
X135558333Y-63729819D02*
X135225000Y-64110771D01*
X135225000Y-64110771D02*
X135367857Y-64110771D01*
X135367857Y-64110771D02*
X135463095Y-64158390D01*
X135463095Y-64158390D02*
X135510714Y-64206009D01*
X135510714Y-64206009D02*
X135558333Y-64301247D01*
X135558333Y-64301247D02*
X135558333Y-64539342D01*
X135558333Y-64539342D02*
X135510714Y-64634580D01*
X135510714Y-64634580D02*
X135463095Y-64682200D01*
X135463095Y-64682200D02*
X135367857Y-64729819D01*
X135367857Y-64729819D02*
X135082143Y-64729819D01*
X135082143Y-64729819D02*
X134986905Y-64682200D01*
X134986905Y-64682200D02*
X134939286Y-64634580D01*
X127446428Y-63729819D02*
X128017856Y-63729819D01*
X127732142Y-64729819D02*
X127732142Y-63729819D01*
X128351190Y-64729819D02*
X128351190Y-63729819D01*
X128351190Y-63729819D02*
X128732142Y-63729819D01*
X128732142Y-63729819D02*
X128827380Y-63777438D01*
X128827380Y-63777438D02*
X128874999Y-63825057D01*
X128874999Y-63825057D02*
X128922618Y-63920295D01*
X128922618Y-63920295D02*
X128922618Y-64063152D01*
X128922618Y-64063152D02*
X128874999Y-64158390D01*
X128874999Y-64158390D02*
X128827380Y-64206009D01*
X128827380Y-64206009D02*
X128732142Y-64253628D01*
X128732142Y-64253628D02*
X128351190Y-64253628D01*
X129303571Y-63825057D02*
X129351190Y-63777438D01*
X129351190Y-63777438D02*
X129446428Y-63729819D01*
X129446428Y-63729819D02*
X129684523Y-63729819D01*
X129684523Y-63729819D02*
X129779761Y-63777438D01*
X129779761Y-63777438D02*
X129827380Y-63825057D01*
X129827380Y-63825057D02*
X129874999Y-63920295D01*
X129874999Y-63920295D02*
X129874999Y-64015533D01*
X129874999Y-64015533D02*
X129827380Y-64158390D01*
X129827380Y-64158390D02*
X129255952Y-64729819D01*
X129255952Y-64729819D02*
X129874999Y-64729819D01*
X121763095Y-63729819D02*
X122334523Y-63729819D01*
X122048809Y-64729819D02*
X122048809Y-63729819D01*
X122667857Y-64729819D02*
X122667857Y-63729819D01*
X122667857Y-63729819D02*
X123048809Y-63729819D01*
X123048809Y-63729819D02*
X123144047Y-63777438D01*
X123144047Y-63777438D02*
X123191666Y-63825057D01*
X123191666Y-63825057D02*
X123239285Y-63920295D01*
X123239285Y-63920295D02*
X123239285Y-64063152D01*
X123239285Y-64063152D02*
X123191666Y-64158390D01*
X123191666Y-64158390D02*
X123144047Y-64206009D01*
X123144047Y-64206009D02*
X123048809Y-64253628D01*
X123048809Y-64253628D02*
X122667857Y-64253628D01*
X124191666Y-64729819D02*
X123620238Y-64729819D01*
X123905952Y-64729819D02*
X123905952Y-63729819D01*
X123905952Y-63729819D02*
X123810714Y-63872676D01*
X123810714Y-63872676D02*
X123715476Y-63967914D01*
X123715476Y-63967914D02*
X123620238Y-64015533D01*
X146791521Y-90998588D02*
X146791521Y-92133847D01*
X146791521Y-92133847D02*
X146858301Y-92267407D01*
X146858301Y-92267407D02*
X146925081Y-92334187D01*
X146925081Y-92334187D02*
X147058641Y-92400966D01*
X147058641Y-92400966D02*
X147325760Y-92400966D01*
X147325760Y-92400966D02*
X147459320Y-92334187D01*
X147459320Y-92334187D02*
X147526100Y-92267407D01*
X147526100Y-92267407D02*
X147592880Y-92133847D01*
X147592880Y-92133847D02*
X147592880Y-90998588D01*
X148861698Y-90998588D02*
X148594579Y-90998588D01*
X148594579Y-90998588D02*
X148461019Y-91065368D01*
X148461019Y-91065368D02*
X148394239Y-91132148D01*
X148394239Y-91132148D02*
X148260679Y-91332488D01*
X148260679Y-91332488D02*
X148193899Y-91599608D01*
X148193899Y-91599608D02*
X148193899Y-92133847D01*
X148193899Y-92133847D02*
X148260679Y-92267407D01*
X148260679Y-92267407D02*
X148327459Y-92334187D01*
X148327459Y-92334187D02*
X148461019Y-92400966D01*
X148461019Y-92400966D02*
X148728138Y-92400966D01*
X148728138Y-92400966D02*
X148861698Y-92334187D01*
X148861698Y-92334187D02*
X148928478Y-92267407D01*
X148928478Y-92267407D02*
X148995258Y-92133847D01*
X148995258Y-92133847D02*
X148995258Y-91799947D01*
X148995258Y-91799947D02*
X148928478Y-91666387D01*
X148928478Y-91666387D02*
X148861698Y-91599608D01*
X148861698Y-91599608D02*
X148728138Y-91532828D01*
X148728138Y-91532828D02*
X148461019Y-91532828D01*
X148461019Y-91532828D02*
X148327459Y-91599608D01*
X148327459Y-91599608D02*
X148260679Y-91666387D01*
X148260679Y-91666387D02*
X148193899Y-91799947D01*
X103194095Y-64204819D02*
X103194095Y-65014342D01*
X103194095Y-65014342D02*
X103241714Y-65109580D01*
X103241714Y-65109580D02*
X103289333Y-65157200D01*
X103289333Y-65157200D02*
X103384571Y-65204819D01*
X103384571Y-65204819D02*
X103575047Y-65204819D01*
X103575047Y-65204819D02*
X103670285Y-65157200D01*
X103670285Y-65157200D02*
X103717904Y-65109580D01*
X103717904Y-65109580D02*
X103765523Y-65014342D01*
X103765523Y-65014342D02*
X103765523Y-64204819D01*
X104194095Y-64300057D02*
X104241714Y-64252438D01*
X104241714Y-64252438D02*
X104336952Y-64204819D01*
X104336952Y-64204819D02*
X104575047Y-64204819D01*
X104575047Y-64204819D02*
X104670285Y-64252438D01*
X104670285Y-64252438D02*
X104717904Y-64300057D01*
X104717904Y-64300057D02*
X104765523Y-64395295D01*
X104765523Y-64395295D02*
X104765523Y-64490533D01*
X104765523Y-64490533D02*
X104717904Y-64633390D01*
X104717904Y-64633390D02*
X104146476Y-65204819D01*
X104146476Y-65204819D02*
X104765523Y-65204819D01*
X118566666Y-121681009D02*
X118233333Y-121681009D01*
X118233333Y-122204819D02*
X118233333Y-121204819D01*
X118233333Y-121204819D02*
X118709523Y-121204819D01*
X119042857Y-121300057D02*
X119090476Y-121252438D01*
X119090476Y-121252438D02*
X119185714Y-121204819D01*
X119185714Y-121204819D02*
X119423809Y-121204819D01*
X119423809Y-121204819D02*
X119519047Y-121252438D01*
X119519047Y-121252438D02*
X119566666Y-121300057D01*
X119566666Y-121300057D02*
X119614285Y-121395295D01*
X119614285Y-121395295D02*
X119614285Y-121490533D01*
X119614285Y-121490533D02*
X119566666Y-121633390D01*
X119566666Y-121633390D02*
X118995238Y-122204819D01*
X118995238Y-122204819D02*
X119614285Y-122204819D01*
X140416666Y-128954819D02*
X140416666Y-129669104D01*
X140416666Y-129669104D02*
X140369047Y-129811961D01*
X140369047Y-129811961D02*
X140273809Y-129907200D01*
X140273809Y-129907200D02*
X140130952Y-129954819D01*
X140130952Y-129954819D02*
X140035714Y-129954819D01*
X141416666Y-129954819D02*
X140845238Y-129954819D01*
X141130952Y-129954819D02*
X141130952Y-128954819D01*
X141130952Y-128954819D02*
X141035714Y-129097676D01*
X141035714Y-129097676D02*
X140940476Y-129192914D01*
X140940476Y-129192914D02*
X140845238Y-129240533D01*
X89138095Y-64204819D02*
X89138095Y-65014342D01*
X89138095Y-65014342D02*
X89185714Y-65109580D01*
X89185714Y-65109580D02*
X89233333Y-65157200D01*
X89233333Y-65157200D02*
X89328571Y-65204819D01*
X89328571Y-65204819D02*
X89519047Y-65204819D01*
X89519047Y-65204819D02*
X89614285Y-65157200D01*
X89614285Y-65157200D02*
X89661904Y-65109580D01*
X89661904Y-65109580D02*
X89709523Y-65014342D01*
X89709523Y-65014342D02*
X89709523Y-64204819D01*
X90709523Y-65204819D02*
X90138095Y-65204819D01*
X90423809Y-65204819D02*
X90423809Y-64204819D01*
X90423809Y-64204819D02*
X90328571Y-64347676D01*
X90328571Y-64347676D02*
X90233333Y-64442914D01*
X90233333Y-64442914D02*
X90138095Y-64490533D01*
X108643172Y-90859580D02*
X108595553Y-90907200D01*
X108595553Y-90907200D02*
X108452696Y-90954819D01*
X108452696Y-90954819D02*
X108357458Y-90954819D01*
X108357458Y-90954819D02*
X108214601Y-90907200D01*
X108214601Y-90907200D02*
X108119363Y-90811961D01*
X108119363Y-90811961D02*
X108071744Y-90716723D01*
X108071744Y-90716723D02*
X108024125Y-90526247D01*
X108024125Y-90526247D02*
X108024125Y-90383390D01*
X108024125Y-90383390D02*
X108071744Y-90192914D01*
X108071744Y-90192914D02*
X108119363Y-90097676D01*
X108119363Y-90097676D02*
X108214601Y-90002438D01*
X108214601Y-90002438D02*
X108357458Y-89954819D01*
X108357458Y-89954819D02*
X108452696Y-89954819D01*
X108452696Y-89954819D02*
X108595553Y-90002438D01*
X108595553Y-90002438D02*
X108643172Y-90050057D01*
X109024125Y-90050057D02*
X109071744Y-90002438D01*
X109071744Y-90002438D02*
X109166982Y-89954819D01*
X109166982Y-89954819D02*
X109405077Y-89954819D01*
X109405077Y-89954819D02*
X109500315Y-90002438D01*
X109500315Y-90002438D02*
X109547934Y-90050057D01*
X109547934Y-90050057D02*
X109595553Y-90145295D01*
X109595553Y-90145295D02*
X109595553Y-90240533D01*
X109595553Y-90240533D02*
X109547934Y-90383390D01*
X109547934Y-90383390D02*
X108976506Y-90954819D01*
X108976506Y-90954819D02*
X109595553Y-90954819D01*
X91566666Y-131681009D02*
X91233333Y-131681009D01*
X91233333Y-132204819D02*
X91233333Y-131204819D01*
X91233333Y-131204819D02*
X91709523Y-131204819D01*
X92614285Y-132204819D02*
X92042857Y-132204819D01*
X92328571Y-132204819D02*
X92328571Y-131204819D01*
X92328571Y-131204819D02*
X92233333Y-131347676D01*
X92233333Y-131347676D02*
X92138095Y-131442914D01*
X92138095Y-131442914D02*
X92042857Y-131490533D01*
X130933333Y-111454819D02*
X130600000Y-110978628D01*
X130361905Y-111454819D02*
X130361905Y-110454819D01*
X130361905Y-110454819D02*
X130742857Y-110454819D01*
X130742857Y-110454819D02*
X130838095Y-110502438D01*
X130838095Y-110502438D02*
X130885714Y-110550057D01*
X130885714Y-110550057D02*
X130933333Y-110645295D01*
X130933333Y-110645295D02*
X130933333Y-110788152D01*
X130933333Y-110788152D02*
X130885714Y-110883390D01*
X130885714Y-110883390D02*
X130838095Y-110931009D01*
X130838095Y-110931009D02*
X130742857Y-110978628D01*
X130742857Y-110978628D02*
X130361905Y-110978628D01*
X131314286Y-110550057D02*
X131361905Y-110502438D01*
X131361905Y-110502438D02*
X131457143Y-110454819D01*
X131457143Y-110454819D02*
X131695238Y-110454819D01*
X131695238Y-110454819D02*
X131790476Y-110502438D01*
X131790476Y-110502438D02*
X131838095Y-110550057D01*
X131838095Y-110550057D02*
X131885714Y-110645295D01*
X131885714Y-110645295D02*
X131885714Y-110740533D01*
X131885714Y-110740533D02*
X131838095Y-110883390D01*
X131838095Y-110883390D02*
X131266667Y-111454819D01*
X131266667Y-111454819D02*
X131885714Y-111454819D01*
X90233333Y-90859580D02*
X90185714Y-90907200D01*
X90185714Y-90907200D02*
X90042857Y-90954819D01*
X90042857Y-90954819D02*
X89947619Y-90954819D01*
X89947619Y-90954819D02*
X89804762Y-90907200D01*
X89804762Y-90907200D02*
X89709524Y-90811961D01*
X89709524Y-90811961D02*
X89661905Y-90716723D01*
X89661905Y-90716723D02*
X89614286Y-90526247D01*
X89614286Y-90526247D02*
X89614286Y-90383390D01*
X89614286Y-90383390D02*
X89661905Y-90192914D01*
X89661905Y-90192914D02*
X89709524Y-90097676D01*
X89709524Y-90097676D02*
X89804762Y-90002438D01*
X89804762Y-90002438D02*
X89947619Y-89954819D01*
X89947619Y-89954819D02*
X90042857Y-89954819D01*
X90042857Y-89954819D02*
X90185714Y-90002438D01*
X90185714Y-90002438D02*
X90233333Y-90050057D01*
X91185714Y-90954819D02*
X90614286Y-90954819D01*
X90900000Y-90954819D02*
X90900000Y-89954819D01*
X90900000Y-89954819D02*
X90804762Y-90097676D01*
X90804762Y-90097676D02*
X90709524Y-90192914D01*
X90709524Y-90192914D02*
X90614286Y-90240533D01*
X130933333Y-102454819D02*
X130600000Y-101978628D01*
X130361905Y-102454819D02*
X130361905Y-101454819D01*
X130361905Y-101454819D02*
X130742857Y-101454819D01*
X130742857Y-101454819D02*
X130838095Y-101502438D01*
X130838095Y-101502438D02*
X130885714Y-101550057D01*
X130885714Y-101550057D02*
X130933333Y-101645295D01*
X130933333Y-101645295D02*
X130933333Y-101788152D01*
X130933333Y-101788152D02*
X130885714Y-101883390D01*
X130885714Y-101883390D02*
X130838095Y-101931009D01*
X130838095Y-101931009D02*
X130742857Y-101978628D01*
X130742857Y-101978628D02*
X130361905Y-101978628D01*
X131885714Y-102454819D02*
X131314286Y-102454819D01*
X131600000Y-102454819D02*
X131600000Y-101454819D01*
X131600000Y-101454819D02*
X131504762Y-101597676D01*
X131504762Y-101597676D02*
X131409524Y-101692914D01*
X131409524Y-101692914D02*
X131314286Y-101740533D01*
X118915713Y-82359580D02*
X118868094Y-82407200D01*
X118868094Y-82407200D02*
X118725237Y-82454819D01*
X118725237Y-82454819D02*
X118629999Y-82454819D01*
X118629999Y-82454819D02*
X118487142Y-82407200D01*
X118487142Y-82407200D02*
X118391904Y-82311961D01*
X118391904Y-82311961D02*
X118344285Y-82216723D01*
X118344285Y-82216723D02*
X118296666Y-82026247D01*
X118296666Y-82026247D02*
X118296666Y-81883390D01*
X118296666Y-81883390D02*
X118344285Y-81692914D01*
X118344285Y-81692914D02*
X118391904Y-81597676D01*
X118391904Y-81597676D02*
X118487142Y-81502438D01*
X118487142Y-81502438D02*
X118629999Y-81454819D01*
X118629999Y-81454819D02*
X118725237Y-81454819D01*
X118725237Y-81454819D02*
X118868094Y-81502438D01*
X118868094Y-81502438D02*
X118915713Y-81550057D01*
X119249047Y-81454819D02*
X119868094Y-81454819D01*
X119868094Y-81454819D02*
X119534761Y-81835771D01*
X119534761Y-81835771D02*
X119677618Y-81835771D01*
X119677618Y-81835771D02*
X119772856Y-81883390D01*
X119772856Y-81883390D02*
X119820475Y-81931009D01*
X119820475Y-81931009D02*
X119868094Y-82026247D01*
X119868094Y-82026247D02*
X119868094Y-82264342D01*
X119868094Y-82264342D02*
X119820475Y-82359580D01*
X119820475Y-82359580D02*
X119772856Y-82407200D01*
X119772856Y-82407200D02*
X119677618Y-82454819D01*
X119677618Y-82454819D02*
X119391904Y-82454819D01*
X119391904Y-82454819D02*
X119296666Y-82407200D01*
X119296666Y-82407200D02*
X119249047Y-82359580D01*
X81566666Y-92204819D02*
X81566666Y-92919104D01*
X81566666Y-92919104D02*
X81519047Y-93061961D01*
X81519047Y-93061961D02*
X81423809Y-93157200D01*
X81423809Y-93157200D02*
X81280952Y-93204819D01*
X81280952Y-93204819D02*
X81185714Y-93204819D01*
X82471428Y-92538152D02*
X82471428Y-93204819D01*
X82233333Y-92157200D02*
X81995238Y-92871485D01*
X81995238Y-92871485D02*
X82614285Y-92871485D01*
X156832142Y-103024819D02*
X156498809Y-102548628D01*
X156260714Y-103024819D02*
X156260714Y-102024819D01*
X156260714Y-102024819D02*
X156641666Y-102024819D01*
X156641666Y-102024819D02*
X156736904Y-102072438D01*
X156736904Y-102072438D02*
X156784523Y-102120057D01*
X156784523Y-102120057D02*
X156832142Y-102215295D01*
X156832142Y-102215295D02*
X156832142Y-102358152D01*
X156832142Y-102358152D02*
X156784523Y-102453390D01*
X156784523Y-102453390D02*
X156736904Y-102501009D01*
X156736904Y-102501009D02*
X156641666Y-102548628D01*
X156641666Y-102548628D02*
X156260714Y-102548628D01*
X157784523Y-103024819D02*
X157213095Y-103024819D01*
X157498809Y-103024819D02*
X157498809Y-102024819D01*
X157498809Y-102024819D02*
X157403571Y-102167676D01*
X157403571Y-102167676D02*
X157308333Y-102262914D01*
X157308333Y-102262914D02*
X157213095Y-102310533D01*
X158403571Y-102024819D02*
X158498809Y-102024819D01*
X158498809Y-102024819D02*
X158594047Y-102072438D01*
X158594047Y-102072438D02*
X158641666Y-102120057D01*
X158641666Y-102120057D02*
X158689285Y-102215295D01*
X158689285Y-102215295D02*
X158736904Y-102405771D01*
X158736904Y-102405771D02*
X158736904Y-102643866D01*
X158736904Y-102643866D02*
X158689285Y-102834342D01*
X158689285Y-102834342D02*
X158641666Y-102929580D01*
X158641666Y-102929580D02*
X158594047Y-102977200D01*
X158594047Y-102977200D02*
X158498809Y-103024819D01*
X158498809Y-103024819D02*
X158403571Y-103024819D01*
X158403571Y-103024819D02*
X158308333Y-102977200D01*
X158308333Y-102977200D02*
X158260714Y-102929580D01*
X158260714Y-102929580D02*
X158213095Y-102834342D01*
X158213095Y-102834342D02*
X158165476Y-102643866D01*
X158165476Y-102643866D02*
X158165476Y-102405771D01*
X158165476Y-102405771D02*
X158213095Y-102215295D01*
X158213095Y-102215295D02*
X158260714Y-102120057D01*
X158260714Y-102120057D02*
X158308333Y-102072438D01*
X158308333Y-102072438D02*
X158403571Y-102024819D01*
X129533333Y-118159580D02*
X129485714Y-118207200D01*
X129485714Y-118207200D02*
X129342857Y-118254819D01*
X129342857Y-118254819D02*
X129247619Y-118254819D01*
X129247619Y-118254819D02*
X129104762Y-118207200D01*
X129104762Y-118207200D02*
X129009524Y-118111961D01*
X129009524Y-118111961D02*
X128961905Y-118016723D01*
X128961905Y-118016723D02*
X128914286Y-117826247D01*
X128914286Y-117826247D02*
X128914286Y-117683390D01*
X128914286Y-117683390D02*
X128961905Y-117492914D01*
X128961905Y-117492914D02*
X129009524Y-117397676D01*
X129009524Y-117397676D02*
X129104762Y-117302438D01*
X129104762Y-117302438D02*
X129247619Y-117254819D01*
X129247619Y-117254819D02*
X129342857Y-117254819D01*
X129342857Y-117254819D02*
X129485714Y-117302438D01*
X129485714Y-117302438D02*
X129533333Y-117350057D01*
X130390476Y-117254819D02*
X130200000Y-117254819D01*
X130200000Y-117254819D02*
X130104762Y-117302438D01*
X130104762Y-117302438D02*
X130057143Y-117350057D01*
X130057143Y-117350057D02*
X129961905Y-117492914D01*
X129961905Y-117492914D02*
X129914286Y-117683390D01*
X129914286Y-117683390D02*
X129914286Y-118064342D01*
X129914286Y-118064342D02*
X129961905Y-118159580D01*
X129961905Y-118159580D02*
X130009524Y-118207200D01*
X130009524Y-118207200D02*
X130104762Y-118254819D01*
X130104762Y-118254819D02*
X130295238Y-118254819D01*
X130295238Y-118254819D02*
X130390476Y-118207200D01*
X130390476Y-118207200D02*
X130438095Y-118159580D01*
X130438095Y-118159580D02*
X130485714Y-118064342D01*
X130485714Y-118064342D02*
X130485714Y-117826247D01*
X130485714Y-117826247D02*
X130438095Y-117731009D01*
X130438095Y-117731009D02*
X130390476Y-117683390D01*
X130390476Y-117683390D02*
X130295238Y-117635771D01*
X130295238Y-117635771D02*
X130104762Y-117635771D01*
X130104762Y-117635771D02*
X130009524Y-117683390D01*
X130009524Y-117683390D02*
X129961905Y-117731009D01*
X129961905Y-117731009D02*
X129914286Y-117826247D01*
X105066666Y-131681009D02*
X104733333Y-131681009D01*
X104733333Y-132204819D02*
X104733333Y-131204819D01*
X104733333Y-131204819D02*
X105209523Y-131204819D01*
X105495238Y-131204819D02*
X106114285Y-131204819D01*
X106114285Y-131204819D02*
X105780952Y-131585771D01*
X105780952Y-131585771D02*
X105923809Y-131585771D01*
X105923809Y-131585771D02*
X106019047Y-131633390D01*
X106019047Y-131633390D02*
X106066666Y-131681009D01*
X106066666Y-131681009D02*
X106114285Y-131776247D01*
X106114285Y-131776247D02*
X106114285Y-132014342D01*
X106114285Y-132014342D02*
X106066666Y-132109580D01*
X106066666Y-132109580D02*
X106019047Y-132157200D01*
X106019047Y-132157200D02*
X105923809Y-132204819D01*
X105923809Y-132204819D02*
X105638095Y-132204819D01*
X105638095Y-132204819D02*
X105542857Y-132157200D01*
X105542857Y-132157200D02*
X105495238Y-132109580D01*
X124138095Y-105329820D02*
X124138095Y-106139343D01*
X124138095Y-106139343D02*
X124185714Y-106234581D01*
X124185714Y-106234581D02*
X124233333Y-106282201D01*
X124233333Y-106282201D02*
X124328571Y-106329820D01*
X124328571Y-106329820D02*
X124519047Y-106329820D01*
X124519047Y-106329820D02*
X124614285Y-106282201D01*
X124614285Y-106282201D02*
X124661904Y-106234581D01*
X124661904Y-106234581D02*
X124709523Y-106139343D01*
X124709523Y-106139343D02*
X124709523Y-105329820D01*
X125090476Y-105329820D02*
X125709523Y-105329820D01*
X125709523Y-105329820D02*
X125376190Y-105710772D01*
X125376190Y-105710772D02*
X125519047Y-105710772D01*
X125519047Y-105710772D02*
X125614285Y-105758391D01*
X125614285Y-105758391D02*
X125661904Y-105806010D01*
X125661904Y-105806010D02*
X125709523Y-105901248D01*
X125709523Y-105901248D02*
X125709523Y-106139343D01*
X125709523Y-106139343D02*
X125661904Y-106234581D01*
X125661904Y-106234581D02*
X125614285Y-106282201D01*
X125614285Y-106282201D02*
X125519047Y-106329820D01*
X125519047Y-106329820D02*
X125233333Y-106329820D01*
X125233333Y-106329820D02*
X125138095Y-106282201D01*
X125138095Y-106282201D02*
X125090476Y-106234581D01*
X123888095Y-114079821D02*
X123888095Y-114889344D01*
X123888095Y-114889344D02*
X123935714Y-114984582D01*
X123935714Y-114984582D02*
X123983333Y-115032202D01*
X123983333Y-115032202D02*
X124078571Y-115079821D01*
X124078571Y-115079821D02*
X124269047Y-115079821D01*
X124269047Y-115079821D02*
X124364285Y-115032202D01*
X124364285Y-115032202D02*
X124411904Y-114984582D01*
X124411904Y-114984582D02*
X124459523Y-114889344D01*
X124459523Y-114889344D02*
X124459523Y-114079821D01*
X125364285Y-114413154D02*
X125364285Y-115079821D01*
X125126190Y-114032202D02*
X124888095Y-114746487D01*
X124888095Y-114746487D02*
X125507142Y-114746487D01*
X125513096Y-126054819D02*
X125513096Y-126864342D01*
X125513096Y-126864342D02*
X125560715Y-126959580D01*
X125560715Y-126959580D02*
X125608334Y-127007200D01*
X125608334Y-127007200D02*
X125703572Y-127054819D01*
X125703572Y-127054819D02*
X125894048Y-127054819D01*
X125894048Y-127054819D02*
X125989286Y-127007200D01*
X125989286Y-127007200D02*
X126036905Y-126959580D01*
X126036905Y-126959580D02*
X126084524Y-126864342D01*
X126084524Y-126864342D02*
X126084524Y-126054819D01*
X127036905Y-126054819D02*
X126560715Y-126054819D01*
X126560715Y-126054819D02*
X126513096Y-126531009D01*
X126513096Y-126531009D02*
X126560715Y-126483390D01*
X126560715Y-126483390D02*
X126655953Y-126435771D01*
X126655953Y-126435771D02*
X126894048Y-126435771D01*
X126894048Y-126435771D02*
X126989286Y-126483390D01*
X126989286Y-126483390D02*
X127036905Y-126531009D01*
X127036905Y-126531009D02*
X127084524Y-126626247D01*
X127084524Y-126626247D02*
X127084524Y-126864342D01*
X127084524Y-126864342D02*
X127036905Y-126959580D01*
X127036905Y-126959580D02*
X126989286Y-127007200D01*
X126989286Y-127007200D02*
X126894048Y-127054819D01*
X126894048Y-127054819D02*
X126655953Y-127054819D01*
X126655953Y-127054819D02*
X126560715Y-127007200D01*
X126560715Y-127007200D02*
X126513096Y-126959580D01*
X119983333Y-124654819D02*
X119650000Y-124178628D01*
X119411905Y-124654819D02*
X119411905Y-123654819D01*
X119411905Y-123654819D02*
X119792857Y-123654819D01*
X119792857Y-123654819D02*
X119888095Y-123702438D01*
X119888095Y-123702438D02*
X119935714Y-123750057D01*
X119935714Y-123750057D02*
X119983333Y-123845295D01*
X119983333Y-123845295D02*
X119983333Y-123988152D01*
X119983333Y-123988152D02*
X119935714Y-124083390D01*
X119935714Y-124083390D02*
X119888095Y-124131009D01*
X119888095Y-124131009D02*
X119792857Y-124178628D01*
X119792857Y-124178628D02*
X119411905Y-124178628D01*
X120316667Y-123654819D02*
X120935714Y-123654819D01*
X120935714Y-123654819D02*
X120602381Y-124035771D01*
X120602381Y-124035771D02*
X120745238Y-124035771D01*
X120745238Y-124035771D02*
X120840476Y-124083390D01*
X120840476Y-124083390D02*
X120888095Y-124131009D01*
X120888095Y-124131009D02*
X120935714Y-124226247D01*
X120935714Y-124226247D02*
X120935714Y-124464342D01*
X120935714Y-124464342D02*
X120888095Y-124559580D01*
X120888095Y-124559580D02*
X120840476Y-124607200D01*
X120840476Y-124607200D02*
X120745238Y-124654819D01*
X120745238Y-124654819D02*
X120459524Y-124654819D01*
X120459524Y-124654819D02*
X120364286Y-124607200D01*
X120364286Y-124607200D02*
X120316667Y-124559580D01*
X149383333Y-98824819D02*
X149050000Y-98348628D01*
X148811905Y-98824819D02*
X148811905Y-97824819D01*
X148811905Y-97824819D02*
X149192857Y-97824819D01*
X149192857Y-97824819D02*
X149288095Y-97872438D01*
X149288095Y-97872438D02*
X149335714Y-97920057D01*
X149335714Y-97920057D02*
X149383333Y-98015295D01*
X149383333Y-98015295D02*
X149383333Y-98158152D01*
X149383333Y-98158152D02*
X149335714Y-98253390D01*
X149335714Y-98253390D02*
X149288095Y-98301009D01*
X149288095Y-98301009D02*
X149192857Y-98348628D01*
X149192857Y-98348628D02*
X148811905Y-98348628D01*
X150240476Y-97824819D02*
X150050000Y-97824819D01*
X150050000Y-97824819D02*
X149954762Y-97872438D01*
X149954762Y-97872438D02*
X149907143Y-97920057D01*
X149907143Y-97920057D02*
X149811905Y-98062914D01*
X149811905Y-98062914D02*
X149764286Y-98253390D01*
X149764286Y-98253390D02*
X149764286Y-98634342D01*
X149764286Y-98634342D02*
X149811905Y-98729580D01*
X149811905Y-98729580D02*
X149859524Y-98777200D01*
X149859524Y-98777200D02*
X149954762Y-98824819D01*
X149954762Y-98824819D02*
X150145238Y-98824819D01*
X150145238Y-98824819D02*
X150240476Y-98777200D01*
X150240476Y-98777200D02*
X150288095Y-98729580D01*
X150288095Y-98729580D02*
X150335714Y-98634342D01*
X150335714Y-98634342D02*
X150335714Y-98396247D01*
X150335714Y-98396247D02*
X150288095Y-98301009D01*
X150288095Y-98301009D02*
X150240476Y-98253390D01*
X150240476Y-98253390D02*
X150145238Y-98205771D01*
X150145238Y-98205771D02*
X149954762Y-98205771D01*
X149954762Y-98205771D02*
X149859524Y-98253390D01*
X149859524Y-98253390D02*
X149811905Y-98301009D01*
X149811905Y-98301009D02*
X149764286Y-98396247D01*
X81566666Y-101704819D02*
X81566666Y-102419104D01*
X81566666Y-102419104D02*
X81519047Y-102561961D01*
X81519047Y-102561961D02*
X81423809Y-102657200D01*
X81423809Y-102657200D02*
X81280952Y-102704819D01*
X81280952Y-102704819D02*
X81185714Y-102704819D01*
X81947619Y-101704819D02*
X82566666Y-101704819D01*
X82566666Y-101704819D02*
X82233333Y-102085771D01*
X82233333Y-102085771D02*
X82376190Y-102085771D01*
X82376190Y-102085771D02*
X82471428Y-102133390D01*
X82471428Y-102133390D02*
X82519047Y-102181009D01*
X82519047Y-102181009D02*
X82566666Y-102276247D01*
X82566666Y-102276247D02*
X82566666Y-102514342D01*
X82566666Y-102514342D02*
X82519047Y-102609580D01*
X82519047Y-102609580D02*
X82471428Y-102657200D01*
X82471428Y-102657200D02*
X82376190Y-102704819D01*
X82376190Y-102704819D02*
X82090476Y-102704819D01*
X82090476Y-102704819D02*
X81995238Y-102657200D01*
X81995238Y-102657200D02*
X81947619Y-102609580D01*
X156857142Y-107224819D02*
X156523809Y-106748628D01*
X156285714Y-107224819D02*
X156285714Y-106224819D01*
X156285714Y-106224819D02*
X156666666Y-106224819D01*
X156666666Y-106224819D02*
X156761904Y-106272438D01*
X156761904Y-106272438D02*
X156809523Y-106320057D01*
X156809523Y-106320057D02*
X156857142Y-106415295D01*
X156857142Y-106415295D02*
X156857142Y-106558152D01*
X156857142Y-106558152D02*
X156809523Y-106653390D01*
X156809523Y-106653390D02*
X156761904Y-106701009D01*
X156761904Y-106701009D02*
X156666666Y-106748628D01*
X156666666Y-106748628D02*
X156285714Y-106748628D01*
X157809523Y-107224819D02*
X157238095Y-107224819D01*
X157523809Y-107224819D02*
X157523809Y-106224819D01*
X157523809Y-106224819D02*
X157428571Y-106367676D01*
X157428571Y-106367676D02*
X157333333Y-106462914D01*
X157333333Y-106462914D02*
X157238095Y-106510533D01*
X158761904Y-107224819D02*
X158190476Y-107224819D01*
X158476190Y-107224819D02*
X158476190Y-106224819D01*
X158476190Y-106224819D02*
X158380952Y-106367676D01*
X158380952Y-106367676D02*
X158285714Y-106462914D01*
X158285714Y-106462914D02*
X158190476Y-106510533D01*
X149358333Y-103024819D02*
X149025000Y-102548628D01*
X148786905Y-103024819D02*
X148786905Y-102024819D01*
X148786905Y-102024819D02*
X149167857Y-102024819D01*
X149167857Y-102024819D02*
X149263095Y-102072438D01*
X149263095Y-102072438D02*
X149310714Y-102120057D01*
X149310714Y-102120057D02*
X149358333Y-102215295D01*
X149358333Y-102215295D02*
X149358333Y-102358152D01*
X149358333Y-102358152D02*
X149310714Y-102453390D01*
X149310714Y-102453390D02*
X149263095Y-102501009D01*
X149263095Y-102501009D02*
X149167857Y-102548628D01*
X149167857Y-102548628D02*
X148786905Y-102548628D01*
X149691667Y-102024819D02*
X150358333Y-102024819D01*
X150358333Y-102024819D02*
X149929762Y-103024819D01*
X134933333Y-106959580D02*
X134885714Y-107007200D01*
X134885714Y-107007200D02*
X134742857Y-107054819D01*
X134742857Y-107054819D02*
X134647619Y-107054819D01*
X134647619Y-107054819D02*
X134504762Y-107007200D01*
X134504762Y-107007200D02*
X134409524Y-106911961D01*
X134409524Y-106911961D02*
X134361905Y-106816723D01*
X134361905Y-106816723D02*
X134314286Y-106626247D01*
X134314286Y-106626247D02*
X134314286Y-106483390D01*
X134314286Y-106483390D02*
X134361905Y-106292914D01*
X134361905Y-106292914D02*
X134409524Y-106197676D01*
X134409524Y-106197676D02*
X134504762Y-106102438D01*
X134504762Y-106102438D02*
X134647619Y-106054819D01*
X134647619Y-106054819D02*
X134742857Y-106054819D01*
X134742857Y-106054819D02*
X134885714Y-106102438D01*
X134885714Y-106102438D02*
X134933333Y-106150057D01*
X135838095Y-106054819D02*
X135361905Y-106054819D01*
X135361905Y-106054819D02*
X135314286Y-106531009D01*
X135314286Y-106531009D02*
X135361905Y-106483390D01*
X135361905Y-106483390D02*
X135457143Y-106435771D01*
X135457143Y-106435771D02*
X135695238Y-106435771D01*
X135695238Y-106435771D02*
X135790476Y-106483390D01*
X135790476Y-106483390D02*
X135838095Y-106531009D01*
X135838095Y-106531009D02*
X135885714Y-106626247D01*
X135885714Y-106626247D02*
X135885714Y-106864342D01*
X135885714Y-106864342D02*
X135838095Y-106959580D01*
X135838095Y-106959580D02*
X135790476Y-107007200D01*
X135790476Y-107007200D02*
X135695238Y-107054819D01*
X135695238Y-107054819D02*
X135457143Y-107054819D01*
X135457143Y-107054819D02*
X135361905Y-107007200D01*
X135361905Y-107007200D02*
X135314286Y-106959580D01*
X114583333Y-73354819D02*
X114250000Y-72878628D01*
X114011905Y-73354819D02*
X114011905Y-72354819D01*
X114011905Y-72354819D02*
X114392857Y-72354819D01*
X114392857Y-72354819D02*
X114488095Y-72402438D01*
X114488095Y-72402438D02*
X114535714Y-72450057D01*
X114535714Y-72450057D02*
X114583333Y-72545295D01*
X114583333Y-72545295D02*
X114583333Y-72688152D01*
X114583333Y-72688152D02*
X114535714Y-72783390D01*
X114535714Y-72783390D02*
X114488095Y-72831009D01*
X114488095Y-72831009D02*
X114392857Y-72878628D01*
X114392857Y-72878628D02*
X114011905Y-72878628D01*
X115488095Y-72354819D02*
X115011905Y-72354819D01*
X115011905Y-72354819D02*
X114964286Y-72831009D01*
X114964286Y-72831009D02*
X115011905Y-72783390D01*
X115011905Y-72783390D02*
X115107143Y-72735771D01*
X115107143Y-72735771D02*
X115345238Y-72735771D01*
X115345238Y-72735771D02*
X115440476Y-72783390D01*
X115440476Y-72783390D02*
X115488095Y-72831009D01*
X115488095Y-72831009D02*
X115535714Y-72926247D01*
X115535714Y-72926247D02*
X115535714Y-73164342D01*
X115535714Y-73164342D02*
X115488095Y-73259580D01*
X115488095Y-73259580D02*
X115440476Y-73307200D01*
X115440476Y-73307200D02*
X115345238Y-73354819D01*
X115345238Y-73354819D02*
X115107143Y-73354819D01*
X115107143Y-73354819D02*
X115011905Y-73307200D01*
X115011905Y-73307200D02*
X114964286Y-73259580D01*
X149383333Y-107224819D02*
X149050000Y-106748628D01*
X148811905Y-107224819D02*
X148811905Y-106224819D01*
X148811905Y-106224819D02*
X149192857Y-106224819D01*
X149192857Y-106224819D02*
X149288095Y-106272438D01*
X149288095Y-106272438D02*
X149335714Y-106320057D01*
X149335714Y-106320057D02*
X149383333Y-106415295D01*
X149383333Y-106415295D02*
X149383333Y-106558152D01*
X149383333Y-106558152D02*
X149335714Y-106653390D01*
X149335714Y-106653390D02*
X149288095Y-106701009D01*
X149288095Y-106701009D02*
X149192857Y-106748628D01*
X149192857Y-106748628D02*
X148811905Y-106748628D01*
X149954762Y-106653390D02*
X149859524Y-106605771D01*
X149859524Y-106605771D02*
X149811905Y-106558152D01*
X149811905Y-106558152D02*
X149764286Y-106462914D01*
X149764286Y-106462914D02*
X149764286Y-106415295D01*
X149764286Y-106415295D02*
X149811905Y-106320057D01*
X149811905Y-106320057D02*
X149859524Y-106272438D01*
X149859524Y-106272438D02*
X149954762Y-106224819D01*
X149954762Y-106224819D02*
X150145238Y-106224819D01*
X150145238Y-106224819D02*
X150240476Y-106272438D01*
X150240476Y-106272438D02*
X150288095Y-106320057D01*
X150288095Y-106320057D02*
X150335714Y-106415295D01*
X150335714Y-106415295D02*
X150335714Y-106462914D01*
X150335714Y-106462914D02*
X150288095Y-106558152D01*
X150288095Y-106558152D02*
X150240476Y-106605771D01*
X150240476Y-106605771D02*
X150145238Y-106653390D01*
X150145238Y-106653390D02*
X149954762Y-106653390D01*
X149954762Y-106653390D02*
X149859524Y-106701009D01*
X149859524Y-106701009D02*
X149811905Y-106748628D01*
X149811905Y-106748628D02*
X149764286Y-106843866D01*
X149764286Y-106843866D02*
X149764286Y-107034342D01*
X149764286Y-107034342D02*
X149811905Y-107129580D01*
X149811905Y-107129580D02*
X149859524Y-107177200D01*
X149859524Y-107177200D02*
X149954762Y-107224819D01*
X149954762Y-107224819D02*
X150145238Y-107224819D01*
X150145238Y-107224819D02*
X150240476Y-107177200D01*
X150240476Y-107177200D02*
X150288095Y-107129580D01*
X150288095Y-107129580D02*
X150335714Y-107034342D01*
X150335714Y-107034342D02*
X150335714Y-106843866D01*
X150335714Y-106843866D02*
X150288095Y-106748628D01*
X150288095Y-106748628D02*
X150240476Y-106701009D01*
X150240476Y-106701009D02*
X150145238Y-106653390D01*
X99438253Y-90859580D02*
X99390634Y-90907200D01*
X99390634Y-90907200D02*
X99247777Y-90954819D01*
X99247777Y-90954819D02*
X99152539Y-90954819D01*
X99152539Y-90954819D02*
X99009682Y-90907200D01*
X99009682Y-90907200D02*
X98914444Y-90811961D01*
X98914444Y-90811961D02*
X98866825Y-90716723D01*
X98866825Y-90716723D02*
X98819206Y-90526247D01*
X98819206Y-90526247D02*
X98819206Y-90383390D01*
X98819206Y-90383390D02*
X98866825Y-90192914D01*
X98866825Y-90192914D02*
X98914444Y-90097676D01*
X98914444Y-90097676D02*
X99009682Y-90002438D01*
X99009682Y-90002438D02*
X99152539Y-89954819D01*
X99152539Y-89954819D02*
X99247777Y-89954819D01*
X99247777Y-89954819D02*
X99390634Y-90002438D01*
X99390634Y-90002438D02*
X99438253Y-90050057D01*
X100295396Y-90288152D02*
X100295396Y-90954819D01*
X100057301Y-89907200D02*
X99819206Y-90621485D01*
X99819206Y-90621485D02*
X100438253Y-90621485D01*
X157709580Y-93566666D02*
X157757200Y-93614285D01*
X157757200Y-93614285D02*
X157804819Y-93757142D01*
X157804819Y-93757142D02*
X157804819Y-93852380D01*
X157804819Y-93852380D02*
X157757200Y-93995237D01*
X157757200Y-93995237D02*
X157661961Y-94090475D01*
X157661961Y-94090475D02*
X157566723Y-94138094D01*
X157566723Y-94138094D02*
X157376247Y-94185713D01*
X157376247Y-94185713D02*
X157233390Y-94185713D01*
X157233390Y-94185713D02*
X157042914Y-94138094D01*
X157042914Y-94138094D02*
X156947676Y-94090475D01*
X156947676Y-94090475D02*
X156852438Y-93995237D01*
X156852438Y-93995237D02*
X156804819Y-93852380D01*
X156804819Y-93852380D02*
X156804819Y-93757142D01*
X156804819Y-93757142D02*
X156852438Y-93614285D01*
X156852438Y-93614285D02*
X156900057Y-93566666D01*
X157233390Y-92995237D02*
X157185771Y-93090475D01*
X157185771Y-93090475D02*
X157138152Y-93138094D01*
X157138152Y-93138094D02*
X157042914Y-93185713D01*
X157042914Y-93185713D02*
X156995295Y-93185713D01*
X156995295Y-93185713D02*
X156900057Y-93138094D01*
X156900057Y-93138094D02*
X156852438Y-93090475D01*
X156852438Y-93090475D02*
X156804819Y-92995237D01*
X156804819Y-92995237D02*
X156804819Y-92804761D01*
X156804819Y-92804761D02*
X156852438Y-92709523D01*
X156852438Y-92709523D02*
X156900057Y-92661904D01*
X156900057Y-92661904D02*
X156995295Y-92614285D01*
X156995295Y-92614285D02*
X157042914Y-92614285D01*
X157042914Y-92614285D02*
X157138152Y-92661904D01*
X157138152Y-92661904D02*
X157185771Y-92709523D01*
X157185771Y-92709523D02*
X157233390Y-92804761D01*
X157233390Y-92804761D02*
X157233390Y-92995237D01*
X157233390Y-92995237D02*
X157281009Y-93090475D01*
X157281009Y-93090475D02*
X157328628Y-93138094D01*
X157328628Y-93138094D02*
X157423866Y-93185713D01*
X157423866Y-93185713D02*
X157614342Y-93185713D01*
X157614342Y-93185713D02*
X157709580Y-93138094D01*
X157709580Y-93138094D02*
X157757200Y-93090475D01*
X157757200Y-93090475D02*
X157804819Y-92995237D01*
X157804819Y-92995237D02*
X157804819Y-92804761D01*
X157804819Y-92804761D02*
X157757200Y-92709523D01*
X157757200Y-92709523D02*
X157709580Y-92661904D01*
X157709580Y-92661904D02*
X157614342Y-92614285D01*
X157614342Y-92614285D02*
X157423866Y-92614285D01*
X157423866Y-92614285D02*
X157328628Y-92661904D01*
X157328628Y-92661904D02*
X157281009Y-92709523D01*
X157281009Y-92709523D02*
X157233390Y-92804761D01*
X130833333Y-121959580D02*
X130785714Y-122007200D01*
X130785714Y-122007200D02*
X130642857Y-122054819D01*
X130642857Y-122054819D02*
X130547619Y-122054819D01*
X130547619Y-122054819D02*
X130404762Y-122007200D01*
X130404762Y-122007200D02*
X130309524Y-121911961D01*
X130309524Y-121911961D02*
X130261905Y-121816723D01*
X130261905Y-121816723D02*
X130214286Y-121626247D01*
X130214286Y-121626247D02*
X130214286Y-121483390D01*
X130214286Y-121483390D02*
X130261905Y-121292914D01*
X130261905Y-121292914D02*
X130309524Y-121197676D01*
X130309524Y-121197676D02*
X130404762Y-121102438D01*
X130404762Y-121102438D02*
X130547619Y-121054819D01*
X130547619Y-121054819D02*
X130642857Y-121054819D01*
X130642857Y-121054819D02*
X130785714Y-121102438D01*
X130785714Y-121102438D02*
X130833333Y-121150057D01*
X131166667Y-121054819D02*
X131833333Y-121054819D01*
X131833333Y-121054819D02*
X131404762Y-122054819D01*
X157333333Y-98824819D02*
X157000000Y-98348628D01*
X156761905Y-98824819D02*
X156761905Y-97824819D01*
X156761905Y-97824819D02*
X157142857Y-97824819D01*
X157142857Y-97824819D02*
X157238095Y-97872438D01*
X157238095Y-97872438D02*
X157285714Y-97920057D01*
X157285714Y-97920057D02*
X157333333Y-98015295D01*
X157333333Y-98015295D02*
X157333333Y-98158152D01*
X157333333Y-98158152D02*
X157285714Y-98253390D01*
X157285714Y-98253390D02*
X157238095Y-98301009D01*
X157238095Y-98301009D02*
X157142857Y-98348628D01*
X157142857Y-98348628D02*
X156761905Y-98348628D01*
X157809524Y-98824819D02*
X158000000Y-98824819D01*
X158000000Y-98824819D02*
X158095238Y-98777200D01*
X158095238Y-98777200D02*
X158142857Y-98729580D01*
X158142857Y-98729580D02*
X158238095Y-98586723D01*
X158238095Y-98586723D02*
X158285714Y-98396247D01*
X158285714Y-98396247D02*
X158285714Y-98015295D01*
X158285714Y-98015295D02*
X158238095Y-97920057D01*
X158238095Y-97920057D02*
X158190476Y-97872438D01*
X158190476Y-97872438D02*
X158095238Y-97824819D01*
X158095238Y-97824819D02*
X157904762Y-97824819D01*
X157904762Y-97824819D02*
X157809524Y-97872438D01*
X157809524Y-97872438D02*
X157761905Y-97920057D01*
X157761905Y-97920057D02*
X157714286Y-98015295D01*
X157714286Y-98015295D02*
X157714286Y-98253390D01*
X157714286Y-98253390D02*
X157761905Y-98348628D01*
X157761905Y-98348628D02*
X157809524Y-98396247D01*
X157809524Y-98396247D02*
X157904762Y-98443866D01*
X157904762Y-98443866D02*
X158095238Y-98443866D01*
X158095238Y-98443866D02*
X158190476Y-98396247D01*
X158190476Y-98396247D02*
X158238095Y-98348628D01*
X158238095Y-98348628D02*
X158285714Y-98253390D01*
D12*
%TO.C,TP9*%
X167675000Y-96075000D02*
G75*
G02*
X164175000Y-96075000I-1750000J0D01*
G01*
X164175000Y-96075000D02*
G75*
G02*
X167675000Y-96075000I1750000J0D01*
G01*
%TO.C,TP10*%
X167675000Y-102741667D02*
G75*
G02*
X164175000Y-102741667I-1750000J0D01*
G01*
X164175000Y-102741667D02*
G75*
G02*
X167675000Y-102741667I1750000J0D01*
G01*
%TO.C,TP11*%
X167675000Y-109408333D02*
G75*
G02*
X164175000Y-109408333I-1750000J0D01*
G01*
X164175000Y-109408333D02*
G75*
G02*
X167675000Y-109408333I1750000J0D01*
G01*
%TO.C,TP12*%
X167675000Y-116075000D02*
G75*
G02*
X164175000Y-116075000I-1750000J0D01*
G01*
X164175000Y-116075000D02*
G75*
G02*
X167675000Y-116075000I1750000J0D01*
G01*
%TO.C,TP8*%
X127675000Y-94525000D02*
G75*
G02*
X124175000Y-94525000I-1750000J0D01*
G01*
X124175000Y-94525000D02*
G75*
G02*
X127675000Y-94525000I1750000J0D01*
G01*
%TO.C,TP14*%
X148925000Y-67025000D02*
G75*
G02*
X145425000Y-67025000I-1750000J0D01*
G01*
X145425000Y-67025000D02*
G75*
G02*
X148925000Y-67025000I1750000J0D01*
G01*
%TO.C,TP13*%
X155425000Y-67025000D02*
G75*
G02*
X151925000Y-67025000I-1750000J0D01*
G01*
X151925000Y-67025000D02*
G75*
G02*
X155425000Y-67025000I1750000J0D01*
G01*
%TO.C,TP7*%
X132308333Y-94525000D02*
G75*
G02*
X128808333Y-94525000I-1750000J0D01*
G01*
X128808333Y-94525000D02*
G75*
G02*
X132308333Y-94525000I1750000J0D01*
G01*
%TO.C,TP6*%
X136941667Y-94525000D02*
G75*
G02*
X133441667Y-94525000I-1750000J0D01*
G01*
X133441667Y-94525000D02*
G75*
G02*
X136941667Y-94525000I1750000J0D01*
G01*
%TO.C,TP5*%
X141575000Y-94525000D02*
G75*
G02*
X138075000Y-94525000I-1750000J0D01*
G01*
X138075000Y-94525000D02*
G75*
G02*
X141575000Y-94525000I1750000J0D01*
G01*
%TO.C,TP4*%
X141825000Y-67025000D02*
G75*
G02*
X138325000Y-67025000I-1750000J0D01*
G01*
X138325000Y-67025000D02*
G75*
G02*
X141825000Y-67025000I1750000J0D01*
G01*
%TO.C,TP3*%
X136141667Y-67025000D02*
G75*
G02*
X132641667Y-67025000I-1750000J0D01*
G01*
X132641667Y-67025000D02*
G75*
G02*
X136141667Y-67025000I1750000J0D01*
G01*
%TO.C,TP2*%
X130458333Y-67025000D02*
G75*
G02*
X126958333Y-67025000I-1750000J0D01*
G01*
X126958333Y-67025000D02*
G75*
G02*
X130458333Y-67025000I1750000J0D01*
G01*
%TO.C,TP1*%
X124775000Y-67025000D02*
G75*
G02*
X121275000Y-67025000I-1750000J0D01*
G01*
X121275000Y-67025000D02*
G75*
G02*
X124775000Y-67025000I1750000J0D01*
G01*
D13*
%TO.C,U6*%
X123935000Y-71610000D02*
X174225000Y-71610000D01*
X123935000Y-90150000D02*
X123935000Y-71610000D01*
X174225000Y-71610000D02*
X174225000Y-90150000D01*
X174225000Y-90150000D02*
X123935000Y-90150000D01*
D14*
X167060000Y-70720000D02*
G75*
G02*
X166660000Y-70720000I-200000J0D01*
G01*
X166660000Y-70720000D02*
G75*
G02*
X167060000Y-70720000I200000J0D01*
G01*
D15*
%TO.C,U2*%
X97606000Y-66476000D02*
X97606000Y-81716000D01*
X97606000Y-81716000D02*
X110306000Y-81716000D01*
X110306000Y-66476000D02*
X97606000Y-66476000D01*
X110306000Y-81716000D02*
X110306000Y-66476000D01*
%TO.C,F2*%
X110423000Y-83873000D02*
X110423000Y-119687000D01*
X110423000Y-119687000D02*
X115570010Y-119687000D01*
X115570010Y-83873000D02*
X110423000Y-83873000D01*
X118229990Y-119687000D02*
X123377000Y-119687000D01*
X123377000Y-83873000D02*
X118229990Y-83873000D01*
X123377000Y-119687000D02*
X123377000Y-83873000D01*
D16*
X117281000Y-121465000D02*
G75*
G02*
X116519000Y-121465000I-381000J0D01*
G01*
X116519000Y-121465000D02*
G75*
G02*
X117281000Y-121465000I381000J0D01*
G01*
D12*
%TO.C,J1*%
X114390000Y-129577358D02*
X114390000Y-129890000D01*
X114390000Y-138650000D02*
X114390000Y-132650000D01*
X115250000Y-129577358D02*
X115250000Y-129890000D01*
X115250000Y-132650000D02*
X115250000Y-138650000D01*
X115250000Y-138650000D02*
X114390000Y-138650000D01*
X116090000Y-129890000D02*
X116090000Y-132650000D01*
X116930000Y-129577358D02*
X116930000Y-129890000D01*
X116930000Y-138650000D02*
X116930000Y-132650000D01*
X117790000Y-129577358D02*
X117790000Y-129890000D01*
X117790000Y-132650000D02*
X117790000Y-138650000D01*
X117790000Y-138650000D02*
X116930000Y-138650000D01*
X118630000Y-129890000D02*
X118630000Y-132650000D01*
X119470000Y-129577358D02*
X119470000Y-129890000D01*
X119470000Y-138650000D02*
X119470000Y-132650000D01*
X120330000Y-129577358D02*
X120330000Y-129890000D01*
X120330000Y-132650000D02*
X120330000Y-138650000D01*
X120330000Y-138650000D02*
X119470000Y-138650000D01*
X121170000Y-129890000D02*
X121170000Y-132650000D01*
X122010000Y-129577358D02*
X122010000Y-129890000D01*
X122010000Y-138650000D02*
X122010000Y-132650000D01*
X122870000Y-129577358D02*
X122870000Y-129890000D01*
X122870000Y-132650000D02*
X122870000Y-138650000D01*
X122870000Y-138650000D02*
X122010000Y-138650000D01*
X123710000Y-129890000D02*
X123710000Y-132650000D01*
X124550000Y-129577358D02*
X124550000Y-129890000D01*
X124550000Y-138650000D02*
X124550000Y-132650000D01*
X125410000Y-129577358D02*
X125410000Y-129890000D01*
X125410000Y-132650000D02*
X125410000Y-138650000D01*
X125410000Y-138650000D02*
X124550000Y-138650000D01*
X126250000Y-129890000D02*
X126250000Y-132650000D01*
X127090000Y-129577358D02*
X127090000Y-129890000D01*
X127090000Y-138650000D02*
X127090000Y-132650000D01*
X127950000Y-129577358D02*
X127950000Y-129890000D01*
X127950000Y-132650000D02*
X127950000Y-138650000D01*
X127950000Y-138650000D02*
X127090000Y-138650000D01*
X128790000Y-129890000D02*
X128790000Y-132650000D01*
X129630000Y-129577358D02*
X129630000Y-129890000D01*
X129630000Y-138650000D02*
X129630000Y-132650000D01*
X130490000Y-129577358D02*
X130490000Y-129890000D01*
X130490000Y-132650000D02*
X130490000Y-138650000D01*
X130490000Y-138650000D02*
X129630000Y-138650000D01*
X131330000Y-129890000D02*
X131330000Y-132650000D01*
X132170000Y-129577358D02*
X132170000Y-129890000D01*
X132170000Y-138650000D02*
X132170000Y-132650000D01*
X133030000Y-129577358D02*
X133030000Y-129890000D01*
X133030000Y-132650000D02*
X133030000Y-138650000D01*
X133030000Y-138650000D02*
X132170000Y-138650000D01*
X133870000Y-129890000D02*
X133870000Y-132650000D01*
X134710000Y-129577358D02*
X134710000Y-129890000D01*
X134710000Y-138650000D02*
X134710000Y-132650000D01*
X135570000Y-129577358D02*
X135570000Y-129890000D01*
X135570000Y-132650000D02*
X135570000Y-138650000D01*
X135570000Y-138650000D02*
X134710000Y-138650000D01*
X136410000Y-129890000D02*
X136410000Y-132650000D01*
X137250000Y-129660000D02*
X137250000Y-129890000D01*
X137680000Y-127230000D02*
X138950000Y-127230000D01*
X138110000Y-129660000D02*
X138110000Y-129890000D01*
X138950000Y-127230000D02*
X138950000Y-128500000D01*
X138110000Y-132650000D02*
X137250000Y-132650000D01*
X137250000Y-138650000D01*
X138110000Y-138650000D01*
X138110000Y-132650000D01*
G36*
X138110000Y-132650000D02*
G01*
X137250000Y-132650000D01*
X137250000Y-138650000D01*
X138110000Y-138650000D01*
X138110000Y-132650000D01*
G37*
X139060000Y-129890000D02*
X113440000Y-129890000D01*
X113440000Y-132650000D01*
X139060000Y-132650000D01*
X139060000Y-129890000D01*
D15*
%TO.C,U1*%
X83550000Y-66476000D02*
X83550000Y-81716000D01*
X83550000Y-81716000D02*
X96250000Y-81716000D01*
X96250000Y-66476000D02*
X83550000Y-66476000D01*
X96250000Y-81716000D02*
X96250000Y-66476000D01*
D12*
%TO.C,C2*%
X101649759Y-85661000D02*
X102279759Y-85661000D01*
X101964759Y-85346000D02*
X101964759Y-85976000D01*
X105150000Y-84270000D02*
X105150000Y-90730000D01*
X105190000Y-84270000D02*
X105190000Y-90730000D01*
X105230000Y-84271000D02*
X105230000Y-90729000D01*
X105270000Y-84272000D02*
X105270000Y-90728000D01*
X105310000Y-84274000D02*
X105310000Y-90726000D01*
X105350000Y-84276000D02*
X105350000Y-90724000D01*
X105390000Y-84279000D02*
X105390000Y-86460000D01*
X105390000Y-88540000D02*
X105390000Y-90721000D01*
X105430000Y-84282000D02*
X105430000Y-86460000D01*
X105430000Y-88540000D02*
X105430000Y-90718000D01*
X105470000Y-84286000D02*
X105470000Y-86460000D01*
X105470000Y-88540000D02*
X105470000Y-90714000D01*
X105510000Y-84290000D02*
X105510000Y-86460000D01*
X105510000Y-88540000D02*
X105510000Y-90710000D01*
X105550000Y-84295000D02*
X105550000Y-86460000D01*
X105550000Y-88540000D02*
X105550000Y-90705000D01*
X105590000Y-84300000D02*
X105590000Y-86460000D01*
X105590000Y-88540000D02*
X105590000Y-90700000D01*
X105630000Y-84305000D02*
X105630000Y-86460000D01*
X105630000Y-88540000D02*
X105630000Y-90695000D01*
X105670000Y-84312000D02*
X105670000Y-86460000D01*
X105670000Y-88540000D02*
X105670000Y-90688000D01*
X105710000Y-84318000D02*
X105710000Y-86460000D01*
X105710000Y-88540000D02*
X105710000Y-90682000D01*
X105750000Y-84326000D02*
X105750000Y-86460000D01*
X105750000Y-88540000D02*
X105750000Y-90674000D01*
X105790000Y-84333000D02*
X105790000Y-86460000D01*
X105790000Y-88540000D02*
X105790000Y-90667000D01*
X105830000Y-84341000D02*
X105830000Y-86460000D01*
X105830000Y-88540000D02*
X105830000Y-90659000D01*
X105870000Y-84350000D02*
X105870000Y-86460000D01*
X105870000Y-88540000D02*
X105870000Y-90650000D01*
X105910000Y-84360000D02*
X105910000Y-86460000D01*
X105910000Y-88540000D02*
X105910000Y-90640000D01*
X105950000Y-84369000D02*
X105950000Y-86460000D01*
X105950000Y-88540000D02*
X105950000Y-90631000D01*
X105990000Y-84380000D02*
X105990000Y-86460000D01*
X105990000Y-88540000D02*
X105990000Y-90620000D01*
X106030000Y-84391000D02*
X106030000Y-86460000D01*
X106030000Y-88540000D02*
X106030000Y-90609000D01*
X106070000Y-84402000D02*
X106070000Y-86460000D01*
X106070000Y-88540000D02*
X106070000Y-90598000D01*
X106110000Y-84414000D02*
X106110000Y-86460000D01*
X106110000Y-88540000D02*
X106110000Y-90586000D01*
X106150000Y-84427000D02*
X106150000Y-86460000D01*
X106150000Y-88540000D02*
X106150000Y-90573000D01*
X106190000Y-84440000D02*
X106190000Y-86460000D01*
X106190000Y-88540000D02*
X106190000Y-90560000D01*
X106230000Y-84453000D02*
X106230000Y-86460000D01*
X106230000Y-88540000D02*
X106230000Y-90547000D01*
X106270000Y-84468000D02*
X106270000Y-86460000D01*
X106270000Y-88540000D02*
X106270000Y-90532000D01*
X106310000Y-84483000D02*
X106310000Y-86460000D01*
X106310000Y-88540000D02*
X106310000Y-90517000D01*
X106350000Y-84498000D02*
X106350000Y-86460000D01*
X106350000Y-88540000D02*
X106350000Y-90502000D01*
X106390000Y-84514000D02*
X106390000Y-86460000D01*
X106390000Y-88540000D02*
X106390000Y-90486000D01*
X106430000Y-84531000D02*
X106430000Y-86460000D01*
X106430000Y-88540000D02*
X106430000Y-90469000D01*
X106470000Y-84548000D02*
X106470000Y-86460000D01*
X106470000Y-88540000D02*
X106470000Y-90452000D01*
X106510000Y-84566000D02*
X106510000Y-86460000D01*
X106510000Y-88540000D02*
X106510000Y-90434000D01*
X106550000Y-84585000D02*
X106550000Y-86460000D01*
X106550000Y-88540000D02*
X106550000Y-90415000D01*
X106590000Y-84604000D02*
X106590000Y-86460000D01*
X106590000Y-88540000D02*
X106590000Y-90396000D01*
X106630000Y-84624000D02*
X106630000Y-86460000D01*
X106630000Y-88540000D02*
X106630000Y-90376000D01*
X106670000Y-84645000D02*
X106670000Y-86460000D01*
X106670000Y-88540000D02*
X106670000Y-90355000D01*
X106710000Y-84666000D02*
X106710000Y-86460000D01*
X106710000Y-88540000D02*
X106710000Y-90334000D01*
X106750000Y-84688000D02*
X106750000Y-86460000D01*
X106750000Y-88540000D02*
X106750000Y-90312000D01*
X106790000Y-84711000D02*
X106790000Y-86460000D01*
X106790000Y-88540000D02*
X106790000Y-90289000D01*
X106830000Y-84735000D02*
X106830000Y-86460000D01*
X106830000Y-88540000D02*
X106830000Y-90265000D01*
X106870000Y-84759000D02*
X106870000Y-86460000D01*
X106870000Y-88540000D02*
X106870000Y-90241000D01*
X106910000Y-84784000D02*
X106910000Y-86460000D01*
X106910000Y-88540000D02*
X106910000Y-90216000D01*
X106950000Y-84810000D02*
X106950000Y-86460000D01*
X106950000Y-88540000D02*
X106950000Y-90190000D01*
X106990000Y-84837000D02*
X106990000Y-86460000D01*
X106990000Y-88540000D02*
X106990000Y-90163000D01*
X107030000Y-84864000D02*
X107030000Y-86460000D01*
X107030000Y-88540000D02*
X107030000Y-90136000D01*
X107070000Y-84893000D02*
X107070000Y-86460000D01*
X107070000Y-88540000D02*
X107070000Y-90107000D01*
X107110000Y-84923000D02*
X107110000Y-86460000D01*
X107110000Y-88540000D02*
X107110000Y-90077000D01*
X107150000Y-84953000D02*
X107150000Y-86460000D01*
X107150000Y-88540000D02*
X107150000Y-90047000D01*
X107190000Y-84984000D02*
X107190000Y-86460000D01*
X107190000Y-88540000D02*
X107190000Y-90016000D01*
X107230000Y-85017000D02*
X107230000Y-86460000D01*
X107230000Y-88540000D02*
X107230000Y-89983000D01*
X107270000Y-85050000D02*
X107270000Y-86460000D01*
X107270000Y-88540000D02*
X107270000Y-89950000D01*
X107310000Y-85085000D02*
X107310000Y-86460000D01*
X107310000Y-88540000D02*
X107310000Y-89915000D01*
X107350000Y-85121000D02*
X107350000Y-86460000D01*
X107350000Y-88540000D02*
X107350000Y-89879000D01*
X107390000Y-85158000D02*
X107390000Y-86460000D01*
X107390000Y-88540000D02*
X107390000Y-89842000D01*
X107430000Y-85196000D02*
X107430000Y-86460000D01*
X107430000Y-88540000D02*
X107430000Y-89804000D01*
X107470000Y-85236000D02*
X107470000Y-89764000D01*
X107510000Y-85277000D02*
X107510000Y-89723000D01*
X107550000Y-85319000D02*
X107550000Y-89681000D01*
X107590000Y-85363000D02*
X107590000Y-89637000D01*
X107630000Y-85409000D02*
X107630000Y-89591000D01*
X107670000Y-85456000D02*
X107670000Y-89544000D01*
X107710000Y-85505000D02*
X107710000Y-89495000D01*
X107750000Y-85557000D02*
X107750000Y-89443000D01*
X107790000Y-85610000D02*
X107790000Y-89390000D01*
X107830000Y-85666000D02*
X107830000Y-89334000D01*
X107870000Y-85725000D02*
X107870000Y-89275000D01*
X107910000Y-85786000D02*
X107910000Y-89214000D01*
X107950000Y-85851000D02*
X107950000Y-89149000D01*
X107990000Y-85919000D02*
X107990000Y-89081000D01*
X108030000Y-85991000D02*
X108030000Y-89009000D01*
X108070000Y-86068000D02*
X108070000Y-88932000D01*
X108110000Y-86150000D02*
X108110000Y-88850000D01*
X108150000Y-86239000D02*
X108150000Y-88761000D01*
X108190000Y-86335000D02*
X108190000Y-88665000D01*
X108230000Y-86442000D02*
X108230000Y-88558000D01*
X108270000Y-86561000D02*
X108270000Y-88439000D01*
X108310000Y-86699000D02*
X108310000Y-88301000D01*
X108350000Y-86867000D02*
X108350000Y-88133000D01*
X108390000Y-87098000D02*
X108390000Y-87902000D01*
X108420000Y-87500000D02*
G75*
G02*
X101880000Y-87500000I-3270000J0D01*
G01*
X101880000Y-87500000D02*
G75*
G02*
X108420000Y-87500000I3270000J0D01*
G01*
D15*
%TO.C,F1*%
X83423000Y-93989750D02*
X83423000Y-129803750D01*
X83423000Y-129803750D02*
X88570010Y-129803750D01*
X88570010Y-93989750D02*
X83423000Y-93989750D01*
X91229990Y-129803750D02*
X96377000Y-129803750D01*
X96377000Y-93989750D02*
X91229990Y-93989750D01*
X96377000Y-129803750D02*
X96377000Y-93989750D01*
D16*
X90281000Y-131581750D02*
G75*
G02*
X89519000Y-131581750I-381000J0D01*
G01*
X89519000Y-131581750D02*
G75*
G02*
X90281000Y-131581750I381000J0D01*
G01*
D12*
%TO.C,R2*%
X128177064Y-110090000D02*
X126722936Y-110090000D01*
X128177064Y-111910000D02*
X126722936Y-111910000D01*
%TO.C,C1*%
X83149759Y-85661000D02*
X83779759Y-85661000D01*
X83464759Y-85346000D02*
X83464759Y-85976000D01*
X86650000Y-84270000D02*
X86650000Y-90730000D01*
X86690000Y-84270000D02*
X86690000Y-90730000D01*
X86730000Y-84271000D02*
X86730000Y-90729000D01*
X86770000Y-84272000D02*
X86770000Y-90728000D01*
X86810000Y-84274000D02*
X86810000Y-90726000D01*
X86850000Y-84276000D02*
X86850000Y-90724000D01*
X86890000Y-84279000D02*
X86890000Y-86460000D01*
X86890000Y-88540000D02*
X86890000Y-90721000D01*
X86930000Y-84282000D02*
X86930000Y-86460000D01*
X86930000Y-88540000D02*
X86930000Y-90718000D01*
X86970000Y-84286000D02*
X86970000Y-86460000D01*
X86970000Y-88540000D02*
X86970000Y-90714000D01*
X87010000Y-84290000D02*
X87010000Y-86460000D01*
X87010000Y-88540000D02*
X87010000Y-90710000D01*
X87050000Y-84295000D02*
X87050000Y-86460000D01*
X87050000Y-88540000D02*
X87050000Y-90705000D01*
X87090000Y-84300000D02*
X87090000Y-86460000D01*
X87090000Y-88540000D02*
X87090000Y-90700000D01*
X87130000Y-84305000D02*
X87130000Y-86460000D01*
X87130000Y-88540000D02*
X87130000Y-90695000D01*
X87170000Y-84312000D02*
X87170000Y-86460000D01*
X87170000Y-88540000D02*
X87170000Y-90688000D01*
X87210000Y-84318000D02*
X87210000Y-86460000D01*
X87210000Y-88540000D02*
X87210000Y-90682000D01*
X87250000Y-84326000D02*
X87250000Y-86460000D01*
X87250000Y-88540000D02*
X87250000Y-90674000D01*
X87290000Y-84333000D02*
X87290000Y-86460000D01*
X87290000Y-88540000D02*
X87290000Y-90667000D01*
X87330000Y-84341000D02*
X87330000Y-86460000D01*
X87330000Y-88540000D02*
X87330000Y-90659000D01*
X87370000Y-84350000D02*
X87370000Y-86460000D01*
X87370000Y-88540000D02*
X87370000Y-90650000D01*
X87410000Y-84360000D02*
X87410000Y-86460000D01*
X87410000Y-88540000D02*
X87410000Y-90640000D01*
X87450000Y-84369000D02*
X87450000Y-86460000D01*
X87450000Y-88540000D02*
X87450000Y-90631000D01*
X87490000Y-84380000D02*
X87490000Y-86460000D01*
X87490000Y-88540000D02*
X87490000Y-90620000D01*
X87530000Y-84391000D02*
X87530000Y-86460000D01*
X87530000Y-88540000D02*
X87530000Y-90609000D01*
X87570000Y-84402000D02*
X87570000Y-86460000D01*
X87570000Y-88540000D02*
X87570000Y-90598000D01*
X87610000Y-84414000D02*
X87610000Y-86460000D01*
X87610000Y-88540000D02*
X87610000Y-90586000D01*
X87650000Y-84427000D02*
X87650000Y-86460000D01*
X87650000Y-88540000D02*
X87650000Y-90573000D01*
X87690000Y-84440000D02*
X87690000Y-86460000D01*
X87690000Y-88540000D02*
X87690000Y-90560000D01*
X87730000Y-84453000D02*
X87730000Y-86460000D01*
X87730000Y-88540000D02*
X87730000Y-90547000D01*
X87770000Y-84468000D02*
X87770000Y-86460000D01*
X87770000Y-88540000D02*
X87770000Y-90532000D01*
X87810000Y-84483000D02*
X87810000Y-86460000D01*
X87810000Y-88540000D02*
X87810000Y-90517000D01*
X87850000Y-84498000D02*
X87850000Y-86460000D01*
X87850000Y-88540000D02*
X87850000Y-90502000D01*
X87890000Y-84514000D02*
X87890000Y-86460000D01*
X87890000Y-88540000D02*
X87890000Y-90486000D01*
X87930000Y-84531000D02*
X87930000Y-86460000D01*
X87930000Y-88540000D02*
X87930000Y-90469000D01*
X87970000Y-84548000D02*
X87970000Y-86460000D01*
X87970000Y-88540000D02*
X87970000Y-90452000D01*
X88010000Y-84566000D02*
X88010000Y-86460000D01*
X88010000Y-88540000D02*
X88010000Y-90434000D01*
X88050000Y-84585000D02*
X88050000Y-86460000D01*
X88050000Y-88540000D02*
X88050000Y-90415000D01*
X88090000Y-84604000D02*
X88090000Y-86460000D01*
X88090000Y-88540000D02*
X88090000Y-90396000D01*
X88130000Y-84624000D02*
X88130000Y-86460000D01*
X88130000Y-88540000D02*
X88130000Y-90376000D01*
X88170000Y-84645000D02*
X88170000Y-86460000D01*
X88170000Y-88540000D02*
X88170000Y-90355000D01*
X88210000Y-84666000D02*
X88210000Y-86460000D01*
X88210000Y-88540000D02*
X88210000Y-90334000D01*
X88250000Y-84688000D02*
X88250000Y-86460000D01*
X88250000Y-88540000D02*
X88250000Y-90312000D01*
X88290000Y-84711000D02*
X88290000Y-86460000D01*
X88290000Y-88540000D02*
X88290000Y-90289000D01*
X88330000Y-84735000D02*
X88330000Y-86460000D01*
X88330000Y-88540000D02*
X88330000Y-90265000D01*
X88370000Y-84759000D02*
X88370000Y-86460000D01*
X88370000Y-88540000D02*
X88370000Y-90241000D01*
X88410000Y-84784000D02*
X88410000Y-86460000D01*
X88410000Y-88540000D02*
X88410000Y-90216000D01*
X88450000Y-84810000D02*
X88450000Y-86460000D01*
X88450000Y-88540000D02*
X88450000Y-90190000D01*
X88490000Y-84837000D02*
X88490000Y-86460000D01*
X88490000Y-88540000D02*
X88490000Y-90163000D01*
X88530000Y-84864000D02*
X88530000Y-86460000D01*
X88530000Y-88540000D02*
X88530000Y-90136000D01*
X88570000Y-84893000D02*
X88570000Y-86460000D01*
X88570000Y-88540000D02*
X88570000Y-90107000D01*
X88610000Y-84923000D02*
X88610000Y-86460000D01*
X88610000Y-88540000D02*
X88610000Y-90077000D01*
X88650000Y-84953000D02*
X88650000Y-86460000D01*
X88650000Y-88540000D02*
X88650000Y-90047000D01*
X88690000Y-84984000D02*
X88690000Y-86460000D01*
X88690000Y-88540000D02*
X88690000Y-90016000D01*
X88730000Y-85017000D02*
X88730000Y-86460000D01*
X88730000Y-88540000D02*
X88730000Y-89983000D01*
X88770000Y-85050000D02*
X88770000Y-86460000D01*
X88770000Y-88540000D02*
X88770000Y-89950000D01*
X88810000Y-85085000D02*
X88810000Y-86460000D01*
X88810000Y-88540000D02*
X88810000Y-89915000D01*
X88850000Y-85121000D02*
X88850000Y-86460000D01*
X88850000Y-88540000D02*
X88850000Y-89879000D01*
X88890000Y-85158000D02*
X88890000Y-86460000D01*
X88890000Y-88540000D02*
X88890000Y-89842000D01*
X88930000Y-85196000D02*
X88930000Y-86460000D01*
X88930000Y-88540000D02*
X88930000Y-89804000D01*
X88970000Y-85236000D02*
X88970000Y-89764000D01*
X89010000Y-85277000D02*
X89010000Y-89723000D01*
X89050000Y-85319000D02*
X89050000Y-89681000D01*
X89090000Y-85363000D02*
X89090000Y-89637000D01*
X89130000Y-85409000D02*
X89130000Y-89591000D01*
X89170000Y-85456000D02*
X89170000Y-89544000D01*
X89210000Y-85505000D02*
X89210000Y-89495000D01*
X89250000Y-85557000D02*
X89250000Y-89443000D01*
X89290000Y-85610000D02*
X89290000Y-89390000D01*
X89330000Y-85666000D02*
X89330000Y-89334000D01*
X89370000Y-85725000D02*
X89370000Y-89275000D01*
X89410000Y-85786000D02*
X89410000Y-89214000D01*
X89450000Y-85851000D02*
X89450000Y-89149000D01*
X89490000Y-85919000D02*
X89490000Y-89081000D01*
X89530000Y-85991000D02*
X89530000Y-89009000D01*
X89570000Y-86068000D02*
X89570000Y-88932000D01*
X89610000Y-86150000D02*
X89610000Y-88850000D01*
X89650000Y-86239000D02*
X89650000Y-88761000D01*
X89690000Y-86335000D02*
X89690000Y-88665000D01*
X89730000Y-86442000D02*
X89730000Y-88558000D01*
X89770000Y-86561000D02*
X89770000Y-88439000D01*
X89810000Y-86699000D02*
X89810000Y-88301000D01*
X89850000Y-86867000D02*
X89850000Y-88133000D01*
X89890000Y-87098000D02*
X89890000Y-87902000D01*
X89920000Y-87500000D02*
G75*
G02*
X83380000Y-87500000I-3270000J0D01*
G01*
X83380000Y-87500000D02*
G75*
G02*
X89920000Y-87500000I3270000J0D01*
G01*
%TO.C,R1*%
X128177064Y-101090000D02*
X126722936Y-101090000D01*
X128177064Y-102910000D02*
X126722936Y-102910000D01*
%TO.C,C3*%
X112092380Y-79402000D02*
X112092380Y-78598000D01*
X112132380Y-79633000D02*
X112132380Y-78367000D01*
X112172380Y-79801000D02*
X112172380Y-78199000D01*
X112212380Y-79939000D02*
X112212380Y-78061000D01*
X112252380Y-80058000D02*
X112252380Y-77942000D01*
X112292380Y-80165000D02*
X112292380Y-77835000D01*
X112332380Y-80261000D02*
X112332380Y-77739000D01*
X112372380Y-80350000D02*
X112372380Y-77650000D01*
X112412380Y-80432000D02*
X112412380Y-77568000D01*
X112452380Y-80509000D02*
X112452380Y-77491000D01*
X112492380Y-80581000D02*
X112492380Y-77419000D01*
X112532380Y-80649000D02*
X112532380Y-77351000D01*
X112572380Y-80714000D02*
X112572380Y-77286000D01*
X112612380Y-80775000D02*
X112612380Y-77225000D01*
X112652380Y-80834000D02*
X112652380Y-77166000D01*
X112692380Y-80890000D02*
X112692380Y-77110000D01*
X112732380Y-80943000D02*
X112732380Y-77057000D01*
X112772380Y-80995000D02*
X112772380Y-77005000D01*
X112812380Y-81044000D02*
X112812380Y-76956000D01*
X112852380Y-81091000D02*
X112852380Y-76909000D01*
X112892380Y-81137000D02*
X112892380Y-76863000D01*
X112932380Y-81181000D02*
X112932380Y-76819000D01*
X112972380Y-81223000D02*
X112972380Y-76777000D01*
X113012380Y-81264000D02*
X113012380Y-76736000D01*
X113052380Y-77960000D02*
X113052380Y-76696000D01*
X113052380Y-81304000D02*
X113052380Y-80040000D01*
X113092380Y-77960000D02*
X113092380Y-76658000D01*
X113092380Y-81342000D02*
X113092380Y-80040000D01*
X113132380Y-77960000D02*
X113132380Y-76621000D01*
X113132380Y-81379000D02*
X113132380Y-80040000D01*
X113172380Y-77960000D02*
X113172380Y-76585000D01*
X113172380Y-81415000D02*
X113172380Y-80040000D01*
X113212380Y-77960000D02*
X113212380Y-76550000D01*
X113212380Y-81450000D02*
X113212380Y-80040000D01*
X113252380Y-77960000D02*
X113252380Y-76517000D01*
X113252380Y-81483000D02*
X113252380Y-80040000D01*
X113292380Y-77960000D02*
X113292380Y-76484000D01*
X113292380Y-81516000D02*
X113292380Y-80040000D01*
X113332380Y-77960000D02*
X113332380Y-76453000D01*
X113332380Y-81547000D02*
X113332380Y-80040000D01*
X113372380Y-77960000D02*
X113372380Y-76423000D01*
X113372380Y-81577000D02*
X113372380Y-80040000D01*
X113412380Y-77960000D02*
X113412380Y-76393000D01*
X113412380Y-81607000D02*
X113412380Y-80040000D01*
X113452380Y-77960000D02*
X113452380Y-76364000D01*
X113452380Y-81636000D02*
X113452380Y-80040000D01*
X113492380Y-77960000D02*
X113492380Y-76337000D01*
X113492380Y-81663000D02*
X113492380Y-80040000D01*
X113532380Y-77960000D02*
X113532380Y-76310000D01*
X113532380Y-81690000D02*
X113532380Y-80040000D01*
X113572380Y-77960000D02*
X113572380Y-76284000D01*
X113572380Y-81716000D02*
X113572380Y-80040000D01*
X113612380Y-77960000D02*
X113612380Y-76259000D01*
X113612380Y-81741000D02*
X113612380Y-80040000D01*
X113652380Y-77960000D02*
X113652380Y-76235000D01*
X113652380Y-81765000D02*
X113652380Y-80040000D01*
X113692380Y-77960000D02*
X113692380Y-76211000D01*
X113692380Y-81789000D02*
X113692380Y-80040000D01*
X113732380Y-77960000D02*
X113732380Y-76188000D01*
X113732380Y-81812000D02*
X113732380Y-80040000D01*
X113772380Y-77960000D02*
X113772380Y-76166000D01*
X113772380Y-81834000D02*
X113772380Y-80040000D01*
X113812380Y-77960000D02*
X113812380Y-76145000D01*
X113812380Y-81855000D02*
X113812380Y-80040000D01*
X113852380Y-77960000D02*
X113852380Y-76124000D01*
X113852380Y-81876000D02*
X113852380Y-80040000D01*
X113892380Y-77960000D02*
X113892380Y-76104000D01*
X113892380Y-81896000D02*
X113892380Y-80040000D01*
X113932380Y-77960000D02*
X113932380Y-76085000D01*
X113932380Y-81915000D02*
X113932380Y-80040000D01*
X113972380Y-77960000D02*
X113972380Y-76066000D01*
X113972380Y-81934000D02*
X113972380Y-80040000D01*
X114012380Y-77960000D02*
X114012380Y-76048000D01*
X114012380Y-81952000D02*
X114012380Y-80040000D01*
X114052380Y-77960000D02*
X114052380Y-76031000D01*
X114052380Y-81969000D02*
X114052380Y-80040000D01*
X114092380Y-77960000D02*
X114092380Y-76014000D01*
X114092380Y-81986000D02*
X114092380Y-80040000D01*
X114132380Y-77960000D02*
X114132380Y-75998000D01*
X114132380Y-82002000D02*
X114132380Y-80040000D01*
X114172380Y-77960000D02*
X114172380Y-75983000D01*
X114172380Y-82017000D02*
X114172380Y-80040000D01*
X114212380Y-77960000D02*
X114212380Y-75968000D01*
X114212380Y-82032000D02*
X114212380Y-80040000D01*
X114252380Y-77960000D02*
X114252380Y-75953000D01*
X114252380Y-82047000D02*
X114252380Y-80040000D01*
X114292380Y-77960000D02*
X114292380Y-75940000D01*
X114292380Y-82060000D02*
X114292380Y-80040000D01*
X114332380Y-77960000D02*
X114332380Y-75927000D01*
X114332380Y-82073000D02*
X114332380Y-80040000D01*
X114372380Y-77960000D02*
X114372380Y-75914000D01*
X114372380Y-82086000D02*
X114372380Y-80040000D01*
X114412380Y-77960000D02*
X114412380Y-75902000D01*
X114412380Y-82098000D02*
X114412380Y-80040000D01*
X114452380Y-77960000D02*
X114452380Y-75891000D01*
X114452380Y-82109000D02*
X114452380Y-80040000D01*
X114492380Y-77960000D02*
X114492380Y-75880000D01*
X114492380Y-82120000D02*
X114492380Y-80040000D01*
X114532380Y-77960000D02*
X114532380Y-75869000D01*
X114532380Y-82131000D02*
X114532380Y-80040000D01*
X114572380Y-77960000D02*
X114572380Y-75860000D01*
X114572380Y-82140000D02*
X114572380Y-80040000D01*
X114612380Y-77960000D02*
X114612380Y-75850000D01*
X114612380Y-82150000D02*
X114612380Y-80040000D01*
X114652380Y-77960000D02*
X114652380Y-75841000D01*
X114652380Y-82159000D02*
X114652380Y-80040000D01*
X114692380Y-77960000D02*
X114692380Y-75833000D01*
X114692380Y-82167000D02*
X114692380Y-80040000D01*
X114732380Y-77960000D02*
X114732380Y-75826000D01*
X114732380Y-82174000D02*
X114732380Y-80040000D01*
X114772380Y-77960000D02*
X114772380Y-75818000D01*
X114772380Y-82182000D02*
X114772380Y-80040000D01*
X114812380Y-77960000D02*
X114812380Y-75812000D01*
X114812380Y-82188000D02*
X114812380Y-80040000D01*
X114852380Y-77960000D02*
X114852380Y-75805000D01*
X114852380Y-82195000D02*
X114852380Y-80040000D01*
X114892380Y-77960000D02*
X114892380Y-75800000D01*
X114892380Y-82200000D02*
X114892380Y-80040000D01*
X114932380Y-77960000D02*
X114932380Y-75795000D01*
X114932380Y-82205000D02*
X114932380Y-80040000D01*
X114972380Y-77960000D02*
X114972380Y-75790000D01*
X114972380Y-82210000D02*
X114972380Y-80040000D01*
X115012380Y-77960000D02*
X115012380Y-75786000D01*
X115012380Y-82214000D02*
X115012380Y-80040000D01*
X115052380Y-77960000D02*
X115052380Y-75782000D01*
X115052380Y-82218000D02*
X115052380Y-80040000D01*
X115092380Y-77960000D02*
X115092380Y-75779000D01*
X115092380Y-82221000D02*
X115092380Y-80040000D01*
X115132380Y-82224000D02*
X115132380Y-75776000D01*
X115172380Y-82226000D02*
X115172380Y-75774000D01*
X115212380Y-82228000D02*
X115212380Y-75772000D01*
X115252380Y-82229000D02*
X115252380Y-75771000D01*
X115292380Y-82230000D02*
X115292380Y-75770000D01*
X115332380Y-82230000D02*
X115332380Y-75770000D01*
X118517621Y-81154000D02*
X118517621Y-80524000D01*
X118832621Y-80839000D02*
X118202621Y-80839000D01*
X118602380Y-79000000D02*
G75*
G02*
X112062380Y-79000000I-3270000J0D01*
G01*
X112062380Y-79000000D02*
G75*
G02*
X118602380Y-79000000I3270000J0D01*
G01*
D17*
%TO.C,J4*%
X74800000Y-81400000D02*
X82500000Y-81400000D01*
X74800000Y-91600000D02*
X74800000Y-81400000D01*
X82500000Y-81400000D02*
X82500000Y-91600000D01*
X82500000Y-91600000D02*
X74800000Y-91600000D01*
D14*
X80400000Y-83100000D02*
G75*
G02*
X80200000Y-83100000I-100000J0D01*
G01*
X80200000Y-83100000D02*
G75*
G02*
X80400000Y-83100000I100000J0D01*
G01*
D12*
%TO.C,R10*%
X156747936Y-103490000D02*
X158202064Y-103490000D01*
X156747936Y-105310000D02*
X158202064Y-105310000D01*
%TO.C,R4*%
X78490000Y-75277064D02*
X78490000Y-73822936D01*
X80310000Y-75277064D02*
X80310000Y-73822936D01*
%TO.C,C6*%
X126811252Y-116890000D02*
X125388748Y-116890000D01*
X126811252Y-118710000D02*
X125388748Y-118710000D01*
D15*
%TO.C,F3*%
X96923000Y-93989750D02*
X96923000Y-129803750D01*
X96923000Y-129803750D02*
X102070010Y-129803750D01*
X102070010Y-93989750D02*
X96923000Y-93989750D01*
X104729990Y-129803750D02*
X109877000Y-129803750D01*
X109877000Y-93989750D02*
X104729990Y-93989750D01*
X109877000Y-129803750D02*
X109877000Y-93989750D01*
D16*
X103781000Y-131581750D02*
G75*
G02*
X103019000Y-131581750I-381000J0D01*
G01*
X103019000Y-131581750D02*
G75*
G02*
X103781000Y-131581750I381000J0D01*
G01*
D17*
%TO.C,U3*%
X126157801Y-107373601D02*
X126157801Y-105494001D01*
X128342201Y-106383001D02*
X128342201Y-105367001D01*
%TO.C,U4*%
X126157801Y-116123602D02*
X126157801Y-114244002D01*
X128342201Y-115133002D02*
X128342201Y-114117002D01*
%TO.C,U5*%
X126783001Y-123307799D02*
X125767001Y-123307799D01*
X127773601Y-125492199D02*
X125894001Y-125492199D01*
D12*
%TO.C,R3*%
X121490000Y-124927064D02*
X121490000Y-123472936D01*
X123310000Y-124927064D02*
X123310000Y-123472936D01*
%TO.C,R6*%
X148822936Y-99290000D02*
X150277064Y-99290000D01*
X148822936Y-101110000D02*
X150277064Y-101110000D01*
D17*
%TO.C,J3*%
X74800000Y-103400000D02*
X82500000Y-103400000D01*
X74800000Y-113600000D02*
X74800000Y-103400000D01*
X82500000Y-103400000D02*
X82500000Y-113600000D01*
X82500000Y-113600000D02*
X74800000Y-113600000D01*
D14*
X80400000Y-105100000D02*
G75*
G02*
X80200000Y-105100000I-100000J0D01*
G01*
X80200000Y-105100000D02*
G75*
G02*
X80400000Y-105100000I100000J0D01*
G01*
D12*
%TO.C,R11*%
X156772936Y-107690000D02*
X158227064Y-107690000D01*
X156772936Y-109510000D02*
X158227064Y-109510000D01*
%TO.C,R7*%
X148797936Y-103490000D02*
X150252064Y-103490000D01*
X148797936Y-105310000D02*
X150252064Y-105310000D01*
%TO.C,C5*%
X130751248Y-105690000D02*
X132173752Y-105690000D01*
X130751248Y-107510000D02*
X132173752Y-107510000D01*
%TO.C,R5*%
X111490000Y-73677064D02*
X111490000Y-72222936D01*
X113310000Y-73677064D02*
X113310000Y-72222936D01*
%TO.C,R8*%
X148822936Y-107690000D02*
X150277064Y-107690000D01*
X148822936Y-109510000D02*
X150277064Y-109510000D01*
%TO.C,C4*%
X92399759Y-85661000D02*
X93029759Y-85661000D01*
X92714759Y-85346000D02*
X92714759Y-85976000D01*
X95900000Y-84270000D02*
X95900000Y-90730000D01*
X95940000Y-84270000D02*
X95940000Y-90730000D01*
X95980000Y-84271000D02*
X95980000Y-90729000D01*
X96020000Y-84272000D02*
X96020000Y-90728000D01*
X96060000Y-84274000D02*
X96060000Y-90726000D01*
X96100000Y-84276000D02*
X96100000Y-90724000D01*
X96140000Y-84279000D02*
X96140000Y-86460000D01*
X96140000Y-88540000D02*
X96140000Y-90721000D01*
X96180000Y-84282000D02*
X96180000Y-86460000D01*
X96180000Y-88540000D02*
X96180000Y-90718000D01*
X96220000Y-84286000D02*
X96220000Y-86460000D01*
X96220000Y-88540000D02*
X96220000Y-90714000D01*
X96260000Y-84290000D02*
X96260000Y-86460000D01*
X96260000Y-88540000D02*
X96260000Y-90710000D01*
X96300000Y-84295000D02*
X96300000Y-86460000D01*
X96300000Y-88540000D02*
X96300000Y-90705000D01*
X96340000Y-84300000D02*
X96340000Y-86460000D01*
X96340000Y-88540000D02*
X96340000Y-90700000D01*
X96380000Y-84305000D02*
X96380000Y-86460000D01*
X96380000Y-88540000D02*
X96380000Y-90695000D01*
X96420000Y-84312000D02*
X96420000Y-86460000D01*
X96420000Y-88540000D02*
X96420000Y-90688000D01*
X96460000Y-84318000D02*
X96460000Y-86460000D01*
X96460000Y-88540000D02*
X96460000Y-90682000D01*
X96500000Y-84326000D02*
X96500000Y-86460000D01*
X96500000Y-88540000D02*
X96500000Y-90674000D01*
X96540000Y-84333000D02*
X96540000Y-86460000D01*
X96540000Y-88540000D02*
X96540000Y-90667000D01*
X96580000Y-84341000D02*
X96580000Y-86460000D01*
X96580000Y-88540000D02*
X96580000Y-90659000D01*
X96620000Y-84350000D02*
X96620000Y-86460000D01*
X96620000Y-88540000D02*
X96620000Y-90650000D01*
X96660000Y-84360000D02*
X96660000Y-86460000D01*
X96660000Y-88540000D02*
X96660000Y-90640000D01*
X96700000Y-84369000D02*
X96700000Y-86460000D01*
X96700000Y-88540000D02*
X96700000Y-90631000D01*
X96740000Y-84380000D02*
X96740000Y-86460000D01*
X96740000Y-88540000D02*
X96740000Y-90620000D01*
X96780000Y-84391000D02*
X96780000Y-86460000D01*
X96780000Y-88540000D02*
X96780000Y-90609000D01*
X96820000Y-84402000D02*
X96820000Y-86460000D01*
X96820000Y-88540000D02*
X96820000Y-90598000D01*
X96860000Y-84414000D02*
X96860000Y-86460000D01*
X96860000Y-88540000D02*
X96860000Y-90586000D01*
X96900000Y-84427000D02*
X96900000Y-86460000D01*
X96900000Y-88540000D02*
X96900000Y-90573000D01*
X96940000Y-84440000D02*
X96940000Y-86460000D01*
X96940000Y-88540000D02*
X96940000Y-90560000D01*
X96980000Y-84453000D02*
X96980000Y-86460000D01*
X96980000Y-88540000D02*
X96980000Y-90547000D01*
X97020000Y-84468000D02*
X97020000Y-86460000D01*
X97020000Y-88540000D02*
X97020000Y-90532000D01*
X97060000Y-84483000D02*
X97060000Y-86460000D01*
X97060000Y-88540000D02*
X97060000Y-90517000D01*
X97100000Y-84498000D02*
X97100000Y-86460000D01*
X97100000Y-88540000D02*
X97100000Y-90502000D01*
X97140000Y-84514000D02*
X97140000Y-86460000D01*
X97140000Y-88540000D02*
X97140000Y-90486000D01*
X97180000Y-84531000D02*
X97180000Y-86460000D01*
X97180000Y-88540000D02*
X97180000Y-90469000D01*
X97220000Y-84548000D02*
X97220000Y-86460000D01*
X97220000Y-88540000D02*
X97220000Y-90452000D01*
X97260000Y-84566000D02*
X97260000Y-86460000D01*
X97260000Y-88540000D02*
X97260000Y-90434000D01*
X97300000Y-84585000D02*
X97300000Y-86460000D01*
X97300000Y-88540000D02*
X97300000Y-90415000D01*
X97340000Y-84604000D02*
X97340000Y-86460000D01*
X97340000Y-88540000D02*
X97340000Y-90396000D01*
X97380000Y-84624000D02*
X97380000Y-86460000D01*
X97380000Y-88540000D02*
X97380000Y-90376000D01*
X97420000Y-84645000D02*
X97420000Y-86460000D01*
X97420000Y-88540000D02*
X97420000Y-90355000D01*
X97460000Y-84666000D02*
X97460000Y-86460000D01*
X97460000Y-88540000D02*
X97460000Y-90334000D01*
X97500000Y-84688000D02*
X97500000Y-86460000D01*
X97500000Y-88540000D02*
X97500000Y-90312000D01*
X97540000Y-84711000D02*
X97540000Y-86460000D01*
X97540000Y-88540000D02*
X97540000Y-90289000D01*
X97580000Y-84735000D02*
X97580000Y-86460000D01*
X97580000Y-88540000D02*
X97580000Y-90265000D01*
X97620000Y-84759000D02*
X97620000Y-86460000D01*
X97620000Y-88540000D02*
X97620000Y-90241000D01*
X97660000Y-84784000D02*
X97660000Y-86460000D01*
X97660000Y-88540000D02*
X97660000Y-90216000D01*
X97700000Y-84810000D02*
X97700000Y-86460000D01*
X97700000Y-88540000D02*
X97700000Y-90190000D01*
X97740000Y-84837000D02*
X97740000Y-86460000D01*
X97740000Y-88540000D02*
X97740000Y-90163000D01*
X97780000Y-84864000D02*
X97780000Y-86460000D01*
X97780000Y-88540000D02*
X97780000Y-90136000D01*
X97820000Y-84893000D02*
X97820000Y-86460000D01*
X97820000Y-88540000D02*
X97820000Y-90107000D01*
X97860000Y-84923000D02*
X97860000Y-86460000D01*
X97860000Y-88540000D02*
X97860000Y-90077000D01*
X97900000Y-84953000D02*
X97900000Y-86460000D01*
X97900000Y-88540000D02*
X97900000Y-90047000D01*
X97940000Y-84984000D02*
X97940000Y-86460000D01*
X97940000Y-88540000D02*
X97940000Y-90016000D01*
X97980000Y-85017000D02*
X97980000Y-86460000D01*
X97980000Y-88540000D02*
X97980000Y-89983000D01*
X98020000Y-85050000D02*
X98020000Y-86460000D01*
X98020000Y-88540000D02*
X98020000Y-89950000D01*
X98060000Y-85085000D02*
X98060000Y-86460000D01*
X98060000Y-88540000D02*
X98060000Y-89915000D01*
X98100000Y-85121000D02*
X98100000Y-86460000D01*
X98100000Y-88540000D02*
X98100000Y-89879000D01*
X98140000Y-85158000D02*
X98140000Y-86460000D01*
X98140000Y-88540000D02*
X98140000Y-89842000D01*
X98180000Y-85196000D02*
X98180000Y-86460000D01*
X98180000Y-88540000D02*
X98180000Y-89804000D01*
X98220000Y-85236000D02*
X98220000Y-89764000D01*
X98260000Y-85277000D02*
X98260000Y-89723000D01*
X98300000Y-85319000D02*
X98300000Y-89681000D01*
X98340000Y-85363000D02*
X98340000Y-89637000D01*
X98380000Y-85409000D02*
X98380000Y-89591000D01*
X98420000Y-85456000D02*
X98420000Y-89544000D01*
X98460000Y-85505000D02*
X98460000Y-89495000D01*
X98500000Y-85557000D02*
X98500000Y-89443000D01*
X98540000Y-85610000D02*
X98540000Y-89390000D01*
X98580000Y-85666000D02*
X98580000Y-89334000D01*
X98620000Y-85725000D02*
X98620000Y-89275000D01*
X98660000Y-85786000D02*
X98660000Y-89214000D01*
X98700000Y-85851000D02*
X98700000Y-89149000D01*
X98740000Y-85919000D02*
X98740000Y-89081000D01*
X98780000Y-85991000D02*
X98780000Y-89009000D01*
X98820000Y-86068000D02*
X98820000Y-88932000D01*
X98860000Y-86150000D02*
X98860000Y-88850000D01*
X98900000Y-86239000D02*
X98900000Y-88761000D01*
X98940000Y-86335000D02*
X98940000Y-88665000D01*
X98980000Y-86442000D02*
X98980000Y-88558000D01*
X99020000Y-86561000D02*
X99020000Y-88439000D01*
X99060000Y-86699000D02*
X99060000Y-88301000D01*
X99100000Y-86867000D02*
X99100000Y-88133000D01*
X99140000Y-87098000D02*
X99140000Y-87902000D01*
X99170000Y-87500000D02*
G75*
G02*
X92630000Y-87500000I-3270000J0D01*
G01*
X92630000Y-87500000D02*
G75*
G02*
X99170000Y-87500000I3270000J0D01*
G01*
%TO.C,C8*%
X158290000Y-94111252D02*
X158290000Y-92688748D01*
X160110000Y-94111252D02*
X160110000Y-92688748D01*
%TO.C,C7*%
X128111252Y-120690000D02*
X126688748Y-120690000D01*
X128111252Y-122510000D02*
X126688748Y-122510000D01*
%TO.C,R9*%
X156772936Y-99290000D02*
X158227064Y-99290000D01*
X156772936Y-101110000D02*
X158227064Y-101110000D01*
%TD*%
M02*
